<?xml version="1.0" encoding="UTF-8" standalone="no"?><!DOCTYPE svg PUBLIC "-//W3C//DTD SVG 1.1//EN" "http://www.w3.org/Graphics/SVG/1.1/DTD/svg11.dtd">
<svg width="100%" height="100%" viewBox="0 0 46 33" version="1.1"
  xmlns="http://www.w3.org/2000/svg"
  xmlns:xlink="http://www.w3.org/1999/xlink" xml:space="preserve"
  xmlns:serif="http://www.serif.com/" style="fill-rule:evenodd;clip-rule:evenodd;stroke-linejoin:round;stroke-miterlimit:2;">
  <path d="M42.959,0.48l-32.2,-0c-1.62,-0 -2.56,0.88 -2.56,2.39l-0,6.46l1.53,4.38l-0,-10.52c-0,-1.12 0.17,-1.28 1.37,-1.28l31.52,-0c1.2,-0 1.37,0.16 1.37,1.2l-0,18.41l-2.39,-0l-0,-9.72c-0,-0.96 -0.17,-1.12 -1.19,-1.12l-3.75,-0c-1.02,-0 -1.19,0.16 -1.19,1.12l-0,9.72l-1.62,-0l-0,-4.14c-0,-0.56 -0.26,-0.88 -0.86,-0.88l-4.43,-0c-0.68,-0 -0.93,0.4 -0.93,0.88l-0,4.14l-1.54,-0l-0,-6.85c-0,-0.88 -0.17,-1.04 -1.19,-1.12l-3.83,-0c-1.03,0.08 -1.2,0.24 -1.2,1.2l-0,6.77l-1.53,0l-0,-3.11c-0.09,-1.03 -0.26,-1.19 -1.28,-1.19l-3.49,0c-1.37,0 -1.45,0.08 -1.45,1.35l-0,1.76l0.94,2.79l30.93,0l-0,2.07c-0.09,0.48 -0.34,0.71 -0.77,0.71l-29.48,0l-0.43,1.52l8.95,0c-0.17,0.876 -0.34,1.673 -0.51,2.47c-0.09,0.717 -0.17,1.355 -1.2,1.195c-0.17,0 -0.59,0.479 -0.59,0.718c-0.09,0.159 0.34,0.478 0.59,0.637c0.09,0.08 0.35,0.08 0.52,0.08l11.58,0c0.17,0 0.43,0 0.69,-0.08c0.42,-0.079 0.76,-0.637 0.42,-1.036c-0.25,-0.159 -0.59,-0.239 -0.94,-0.319c-0.25,-0.159 -0.68,-0.159 -0.68,-0.318c-0.25,-1.116 -0.42,-2.232 -0.68,-3.347l11.42,0c1.7,0 2.64,-0.88 2.64,-2.47l-0,-22c-0,-1.59 -0.85,-2.47 -2.56,-2.47Zm-26.24,21.04l-3.07,0l-0,-2.79l3.07,0l-0,2.79Zm7.75,0l-2.98,0l-0,-6.45l2.98,0l-0,6.45Zm7.76,0l-2.98,0l-0,-3.51l2.98,0l-0,3.51Zm7.84,0l-3.07,0l-0,-9.32l3.07,0l-0,9.32Zm-16.87,9.486c0.17,-1.196 0.42,-2.312 0.68,-3.507l5.96,0c0.26,1.116 0.51,2.311 0.68,3.507l-7.32,0Z" style="fill:#fff;"/>
  <path d="M40.029,4.13c-0,-0.57 -0.25,-0.89 -0.93,-0.89c-0.94,0.08 -1.87,-0 -2.89,0.08c-0.43,-0 -0.77,0.24 -0.77,0.65c-0,0.48 0.26,0.72 0.77,0.8l1.02,0c-1.79,1.53 -3.41,2.98 -5.02,4.35c-0.17,0.08 -0.51,0.16 -0.77,0.16c-0.76,-0.16 -1.53,-0.08 -2.21,0.41c-0.17,0.08 -0.43,0.16 -0.6,0.08c-1.02,-0.33 -1.95,-0.73 -2.89,-1.13c-0.17,-0.08 -0.42,-0.24 -0.42,-0.4c-0.34,-1.29 -1.19,-2.1 -2.39,-2.02c-1.27,-0 -2.04,0.81 -2.29,2.18c-0.09,0.16 -0.26,0.4 -0.43,0.56c-0.93,0.48 -1.95,0.89 -2.89,1.29c-0.26,0.16 -0.68,0.08 -0.85,-0c-1.02,-0.48 -2.13,-0.4 -2.89,0.24c-0.77,0.73 -0.94,1.77 -0.43,2.66c0.51,0.89 1.53,1.37 2.55,1.13c1.02,-0.16 1.7,-0.97 1.87,-2.02c-0,-0.24 0.17,-0.48 0.43,-0.56c0.94,-0.56 1.96,-1.05 3.06,-1.45c0.17,-0.08 0.51,-0.08 0.68,-0c0.94,0.48 1.79,0.48 2.64,-0.08c0.26,-0.08 0.6,-0.16 0.77,-0.08c0.93,0.32 1.87,0.64 2.8,1.05c0.17,0.08 0.43,0.4 0.51,0.64c0.17,1.21 1.37,2.01 2.64,1.85c1.28,-0.24 2.13,-1.37 1.96,-2.66c-0.09,-0.24 0.08,-0.56 0.25,-0.8c1.54,-1.29 3.07,-2.58 4.6,-3.95c0.17,-0.16 0.34,-0.24 0.59,-0.48l-0,1.13c-0,0.48 0.26,0.8 0.77,0.8c0.51,-0 0.76,-0.32 0.76,-0.72c0.09,-0.97 0.09,-1.86 -0,-2.82Zm-24.84,8.7c-0.42,-0.16 -0.76,-0.24 -0.76,-0.73c-0,-0.48 0.34,-0.64 0.85,-0.64c1.1,-0 0.51,1.45 -0.09,1.37Zm7.83,-3.71c-0.51,-0 -0.85,-0.24 -0.77,-0.72c-0,-0.41 0.26,-0.65 0.77,-0.65c0.94,0 0.94,1.37 -0,1.37Zm7.66,2.9c-0.26,-0 -0.68,-0.4 -0.68,-0.64c-0,-0.41 0.17,-0.49 0.34,-0.57c0.08,-0.08 0.59,-0.48 0.85,-0.08c0.34,0.49 0.76,1.29 -0.51,1.29Z" style="fill:#fff;"/>
  <path d="M12.429,25.48c-0.25,-0.72 -0.51,-1.44 -0.76,-2.16c-0.17,-0.48 -0.34,-0.96 -0.52,-1.44c-0.25,-0.64 -0.42,-1.28 -0.68,-1.92c-0.51,-1.36 -1.02,-2.64 -1.45,-4c-0.51,-1.28 -0.94,-2.56 -1.45,-3.84c-0.77,-2.16 -1.54,-4.24 -2.3,-6.32c-0.35,-0.96 -0.94,-1.36 -1.88,-1.36c-0.77,-0 -1.45,0.48 -1.71,1.2c-0,0.08 -0.09,0.08 -0.09,0.16c0.18,0.72 -0.25,1.28 -0.76,1.84c-0.43,0.48 -0.43,1.12 -0.17,1.76c0.42,1.2 0.85,2.4 1.28,3.6c0.08,0.32 0.25,0.56 0.68,0.48c0.43,-0.16 0.34,-0.48 0.26,-0.8c-0.43,-1.12 -0.86,-2.24 -1.29,-3.44c-0.17,-0.56 -0.17,-1.04 0.43,-1.52c0.09,0.24 0.17,0.48 0.26,0.64c1.45,4 2.9,8 4.35,12.08c0.77,1.92 1.45,3.92 2.13,5.84c0.18,0.4 0.52,0.8 0.77,1.12c0.43,0.48 0.94,0.88 1.37,1.28c0.25,0.24 0.34,0.48 0.51,0.72c0.17,0.08 0.43,0.24 0.6,0.16c0.08,-0 0.25,-0.24 0.25,-0.4c0.09,-0.56 0.17,-1.2 0.17,-1.76c0.09,-0.4 0.09,-0.8 0.09,-1.2l-0,-0.16c-0,-0.24 -0,-0.4 -0.09,-0.56Zm-9.3,-20.08c0.51,-0.16 0.85,-0 1.11,0.48c-0.51,0.16 -1.11,0.4 -1.62,0.56c-0.17,-0.56 -0,-0.88 0.51,-1.04Zm-0.17,1.92c0.51,-0.16 1.11,-0.32 1.71,-0.56c0.68,2.08 1.45,4.16 2.22,6.24c-0.6,0.16 -1.11,0.32 -1.71,0.56c-0.77,-2.08 -1.54,-4.16 -2.22,-6.24Zm3.93,10.88c-0.43,-1.28 -0.94,-2.48 -1.37,-3.76c0.6,-0.16 1.11,-0.4 1.71,-0.56c-0,0.16 0.08,0.24 0.08,0.32c0.6,1.52 1.11,3.04 1.71,4.56c0.51,1.52 1.11,3.04 1.62,4.56c0.26,0.8 0.6,1.52 0.86,2.24c-0.35,0.08 -0.6,0.16 -0.86,0.24c-0.25,0.08 -0.6,0.16 -0.85,0.32c-0.26,-0.72 -0.51,-1.44 -0.77,-2.16c-0.77,-1.92 -1.45,-3.84 -2.13,-5.76Zm4.44,9.6c-0.18,-0.16 -0.35,-0.32 -0.52,-0.48c-0.17,-0.16 -0.25,-0.24 -0.42,-0.4c0.42,-0.16 0.76,-0.32 1.19,-0.4c-0.08,0.32 -0.08,0.56 -0.17,0.88c-0,0.16 -0.08,0.24 -0.08,0.4Z" style="fill:#fff;"/>
</svg>
