<?xml version="1.0" encoding="UTF-8" standalone="no"?><!DOCTYPE svg PUBLIC "-//W3C//DTD SVG 1.1//EN" "http://www.w3.org/Graphics/SVG/1.1/DTD/svg11.dtd">
<svg width="100%" height="100%" viewBox="0 0 41 38" version="1.1"
  xmlns="http://www.w3.org/2000/svg"
  xmlns:xlink="http://www.w3.org/1999/xlink" xml:space="preserve"
  xmlns:serif="http://www.serif.com/" style="fill-rule:evenodd;clip-rule:evenodd;stroke-linejoin:round;stroke-miterlimit:2;">
  <path d="M40.497,31.539c-0,-2.88 0.31,-2.016 -1.73,-4.034c-0.72,-0.67 -1.33,-1.25 -2.35,-1.05c-0.51,0.09 -0.71,-0.2 -0.61,-0.58c-0,-0.58 -0.1,-1.25 -0.1,-1.82c-0,-3.84 0.1,-7.78 -0,-11.62c-0,-0.96 -0.11,-1.06 -1.02,-1.06c-0.41,0 -0.82,0.1 -1.23,0c-0.2,0 -0.61,0.2 -0.61,-0.38c-0,-0.29 -0.41,-0.58 -0.72,-0.67c-0.4,-0.19 -0.81,-0.1 -1.22,-0.29c-0.31,-0.1 -0.61,-0.29 -0.72,-0.58c-0,-0.19 0.11,-0.57 0.31,-0.86c0.31,-0.29 0.71,-0.58 1.02,-0.86c0.21,-0.2 0.31,-0.58 0.21,-0.77c-0.72,-1.92 -1.13,-2.11 -3.17,-1.54l-0.1,0c-0.72,0.19 -1.33,-0.29 -1.12,-0.96c0.1,-0.38 0.2,-0.77 0.4,-1.05c0.21,-0.68 0.11,-1.06 -0.51,-1.35c-1.83,-0.96 -1.73,-0.96 -3.26,0.39c-0.21,0.19 -0.62,0.38 -0.82,0.28c-0.31,-0.09 -0.51,-0.38 -0.71,-0.67c-0.11,-0.38 -0.11,-0.86 -0.31,-1.25c-0.1,-0.28 -0.41,-0.57 -0.71,-0.57c-2.35,-0.29 -2.35,-0.19 -2.86,1.82c-0,0.1 -0,0.1 -0.1,0.19c-0.11,0.2 -0.31,0.39 -0.52,0.48c-0.81,0.39 -1.02,-0.38 -1.42,-0.76c-0.92,-0.87 -0.92,-0.87 -2.05,-0.29c-1.63,0.86 -1.63,0.57 -1.02,2.4c0.21,0.38 0.41,0.77 -0.1,1.15c-0.41,0.38 -0.82,0.19 -1.22,0.1c-1.84,-0.58 -1.43,-0.77 -2.56,0.96c-0.61,1.05 -0.61,1.05 0.31,1.82c0.21,0.19 0.51,0.38 0.72,0.58c0.51,0.48 0.3,1.15 -0.41,1.34c-0.41,0.1 -0.82,0.19 -1.23,0.29c-0.41,0 -0.81,0.09 -0.92,0.67c-0,0.19 -0.3,0.38 -0.51,0.38c-0.3,0.1 -0.71,0 -1.02,0c-1.22,0 -1.32,0.1 -1.32,1.25l-0,13.83l-3.27,0c-0.92,0 -1.43,0.48 -1.43,1.34l-0,8.736c-0,0.864 0.51,1.344 1.43,1.344l7.76,0c0.71,0 1.32,-0.48 1.32,-1.248c-0,-0.576 0.11,-1.248 -0,-1.824c0.11,-1.248 -0,-4.608 -0,-5.184c-0,-0.768 -2.45,-3.074 -3.26,-3.164c-1.43,-0.1 -1.43,-0.1 -1.43,-1.44l-0,-11.91c-0,-0.38 -0,-0.77 0.51,-0.67c0.51,0 1.12,-0.38 1.33,0.38c0.1,0.29 0.4,0.58 0.71,0.68c0.41,0.19 0.92,0.19 1.33,0.28c0.71,0.2 0.92,0.87 0.41,1.35c-0.31,0.29 -0.62,0.57 -0.92,0.77c-0.62,0.38 -0.62,0.76 -0.21,1.44c1.02,1.63 1.02,1.63 2.96,1.05c0.31,0 0.72,0 0.92,0.19c0.21,0.2 0.31,0.58 0.21,0.87c-0.11,0.48 -0.31,0.86 -0.41,1.34c-0,0.19 -0,0.58 0.2,0.67c0.72,0.39 1.33,0.96 2.15,1.06c0.4,0 0.91,-0.77 1.42,-1.15c0.11,0 0.11,-0.1 0.21,-0.19c0.41,-0.39 1.22,-0.2 1.33,0.38c0.1,0.19 0.2,0.58 0.2,0.86c0.1,0.68 0.2,1.35 1.22,1.25c-0,0.77 -0,1.54 0.11,2.21c-0,0.38 -0.21,0.58 -0.72,0.58l-2.45,0c-1.12,0 -1.63,0.48 -1.63,1.53l-0,8.354c-0,1.056 0.51,1.536 1.63,1.536l7.35,0c1.12,0 1.63,-0.48 1.63,-1.536l-0,-4.8c-0.1,-2.88 0.31,-1.92 -1.83,-4.124c-0.62,-0.58 -1.33,-1.06 -2.35,-0.96c-0.1,0 -0.51,-0.2 -0.51,-0.39c-0.1,-0.77 -0.1,-1.63 -0.1,-2.4c1.02,-0.19 1.02,-0.19 1.22,-1.05c0.1,-0.29 0.1,-0.68 0.21,-0.96c0.2,-0.68 0.91,-0.96 1.53,-0.39c0.2,0.19 0.51,0.48 0.71,0.77c0.41,0.58 0.92,0.67 1.53,0.29c2.04,-1.25 1.94,-0.77 1.23,-2.88c-0.1,-0.19 -0,-0.67 0.1,-0.77c0.2,-0.19 0.71,-0.29 0.92,-0.29c2.04,0.58 2.04,0.58 3.16,-1.15c0.31,-0.58 0.21,-0.96 -0.3,-1.34c-0.31,-0.2 -0.62,-0.48 -0.92,-0.77c-0.51,-0.48 -0.31,-1.15 0.3,-1.35c0.41,-0.09 0.72,-0.19 1.13,-0.19c0.51,-0.09 1.02,-0.19 1.12,-0.86c-0,-0.1 -0,-0.19 0.1,-0.19c0.31,-0.1 1.02,-0.1 1.33,-0.1c0.2,0 0.31,0.29 0.31,0.48l-0,12.96c-0,0.48 -0.21,0.58 -0.62,0.58l-2.65,0c-0.92,0 -1.43,0.48 -1.43,1.34c-0.1,0.576 -0.1,4.032 -0,5.28l-0,3.264c-0,1.152 0.41,1.536 1.63,1.536l7.15,0c1.22,0 1.73,-0.48 1.73,-1.536l-0,-4.8Zm-34.19,-4.224c1.12,0 1.12,0.1 1.12,1.152c0.1,0.672 0.31,1.152 1.02,1.344c0.51,0.096 1.33,0 1.53,0.192c0.31,0.288 0.21,3.648 0.21,4.8c-0.1,0.384 -0,0.768 -0,1.248c-0,0.576 -0.41,1.056 -1.02,1.056c-2.35,-0.096 -4.6,-0.096 -6.84,0c-0.62,0 -1.02,-0.384 -1.02,-0.96l-0,-7.968c-0,-0.484 0.4,-0.864 1.02,-0.864l3.98,0Zm15.11,0c0.51,0 0.81,0.1 0.81,0.67c-0,1.442 0.41,1.73 1.94,1.826c0.51,0 0.72,0.192 0.72,0.672l-0,5.856c-0,0.576 -0.21,0.768 -0.82,0.768c-2.25,-0.096 -4.9,-0.096 -7.15,0c-0.61,0 -0.81,-0.288 -0.81,-0.864l-0,-8.16c-0,-0.578 0.2,-0.868 0.81,-0.768l4.5,0Zm9.59,-14.59l-0.1,0c-1.43,0.29 -1.94,0.77 -1.94,2.11c-0,0.19 0.1,0.48 0.2,0.58c0.31,0.28 0.62,0.57 1.02,0.86c0.31,0.29 0.41,0.48 0.21,0.96c-0.31,0.38 -0.61,0.58 -1.02,0.38c-0.1,-0.09 -0.31,-0.09 -0.41,-0.09c-1.33,-0.48 -2.04,-0.19 -2.76,0.96c-0.1,0.09 -0.1,0.38 -0,0.57c-0,0.39 0.11,0.77 0.31,1.06c0.2,0.48 0.1,0.77 -0.41,1.06c-0.51,0.38 -0.82,0.09 -1.12,-0.29c-0,-0.1 -0.1,-0.1 -0.21,-0.19c-0.71,-0.87 -1.83,-1.06 -2.85,-0.39c-0.21,0.1 -0.31,0.29 -0.31,0.48c-0.1,0.39 -0.2,0.77 -0.31,1.25c-0.1,0.38 -0.3,0.58 -0.81,0.58c-0.51,0 -0.82,-0.2 -0.82,-0.68l-0,-0.19c-0.41,-1.44 -0.71,-1.73 -2.25,-1.92c-0.3,0 -0.51,0.19 -0.71,0.29c-0.31,0.19 -0.51,0.48 -0.82,0.86c-0.3,0.29 -0.61,0.48 -1.12,0.2c-0.41,-0.29 -0.61,-0.58 -0.31,-0.96l-0,-0.2c0.51,-1.44 0.41,-1.82 -0.91,-2.68c-0.21,-0.1 -0.51,-0.1 -0.72,-0.1c-0.41,0.1 -0.71,0.19 -1.12,0.38c-0.51,0.2 -0.82,0.1 -1.12,-0.38c-0.31,-0.58 -0,-0.77 0.3,-1.06c0.1,0 0.1,-0.09 0.1,-0.09c1.13,-0.87 1.23,-1.63 0.62,-2.79c-0.11,-0.19 -0.41,-0.28 -0.62,-0.38c-0.3,-0.1 -0.71,-0.19 -1.12,-0.19c-0.51,-0.1 -0.71,-0.29 -0.71,-0.87c-0,-0.48 0.2,-0.67 0.71,-0.76l0.21,0c1.32,-0.29 1.93,-0.96 1.93,-2.21c-0,-0.19 -0.1,-0.39 -0.3,-0.58c-0.21,-0.29 -0.51,-0.48 -0.82,-0.67c-0.51,-0.38 -0.51,-0.67 -0.3,-1.06c0.3,-0.48 0.61,-0.57 1.02,-0.38c0.1,0 0.2,0.1 0.3,0.1c1.43,0.48 1.94,0.28 2.86,-0.87c0.1,-0.19 0.1,-0.48 -0,-0.67c-0,-0.38 -0.2,-0.67 -0.31,-1.06c-0.2,-0.48 -0.2,-0.76 0.31,-1.05c0.61,-0.39 0.92,-0.1 1.23,0.29c-0,0.09 0.1,0.09 0.1,0.19c0.92,0.86 1.73,1.05 2.96,0.38c0.1,-0.09 0.3,-0.29 0.3,-0.48c0.11,-0.48 0.21,-0.86 0.31,-1.25c0.1,-0.48 0.41,-0.57 0.82,-0.57c0.41,0 0.71,0.09 0.81,0.48l-0,0.38c0.41,1.44 0.62,1.73 2.25,1.83c0.2,0.09 0.51,0 0.71,-0.2c0.31,-0.19 0.51,-0.48 0.82,-0.76c0.2,-0.39 0.51,-0.68 1.02,-0.29c0.61,0.29 0.61,0.57 0.41,1.05c-0.1,0.1 -0.1,0.29 -0.2,0.48c-0.31,0.87 0.3,2.12 1.22,2.4c0.1,0 0.2,0 0.41,0.1c0.51,-0.19 1.02,-0.29 1.53,-0.48c0.51,-0.19 0.61,0 0.82,0.29c0.2,0.29 0.4,0.57 -0,0.96c-0.11,0 -0.11,0.09 -0.21,0.19c-1.32,0.67 -1.22,1.63 -0.71,2.69c0.1,0.29 0.41,0.48 0.61,0.57c0.31,0.1 0.71,0.1 1.02,0.2c0.51,0.09 0.82,0.19 0.82,0.76c-0,0.58 -0.31,0.77 -0.82,0.87Zm8.68,23.422c-0,0.48 -0.41,0.96 -1.02,0.96c-2.25,-0.096 -4.6,-0.096 -6.94,0c-0.52,0 -0.92,-0.384 -0.92,-0.96l-0,-2.976c0.1,-1.056 -0,-4.512 -0,-4.992c-0,-0.574 0.4,-0.864 1.02,-0.864l4.28,0c0.62,-0.1 0.82,0.29 0.82,0.864c0.1,1.344 0.31,1.632 1.74,1.632c0.61,0 1.02,0.192 1.02,0.768c-0.1,1.824 -0.1,3.744 -0,5.568Z" style="fill:#fff;"/>
  <rect x="17.767" y="34.395" width="5.52" height="0.72" style="fill:#fff;"/>
  <rect x="17.767" y="31.995" width="5.52" height="0.84" style="fill:#fff;"/>
  <rect x="17.767" y="29.715" width="3.72" height="0.72" style="fill:#fff;"/>
  <rect x="32.407" y="34.395" width="5.4" height="0.72" style="fill:#fff;"/>
  <rect x="32.407" y="31.995" width="5.4" height="0.84" style="fill:#fff;"/>
  <rect x="32.407" y="29.715" width="3.72" height="0.72" style="fill:#fff;"/>
  <rect x="2.767" y="34.395" width="5.4" height="0.72" style="fill:#fff;"/>
  <rect x="2.767" y="31.995" width="5.4" height="0.84" style="fill:#fff;"/>
  <rect x="2.767" y="29.715" width="3.48" height="0.72" style="fill:#fff;"/>
  <path d="M27.417,9.315c-0,-0.1 -0,-0.19 -0.1,-0.19l-0,-0.19c-0.1,-0.2 -0.31,-0.39 -0.41,-0.68l-0.1,-0.09c-0.71,-1.15 -1.72,-1.92 -2.43,-2.31l-0.1,-0.09c-0.2,-0.1 -0.31,-0.1 -0.41,-0.19c-0.3,-0.2 -0.5,-0.29 -0.5,-0.29c-1.42,-0.48 -2.84,-0.58 -4.36,-0.29c-3.75,0.67 -6.28,3.94 -5.87,7.58c0.3,3.46 3.44,6.24 7.19,6.34c2.94,0 5.16,-1.15 6.58,-3.55c1.22,-1.92 1.42,-3.94 0.61,-5.95c-0.1,0 -0.1,-0.1 -0.1,-0.1Zm-3.55,7.68c-2.23,1.25 -5.06,1.15 -7.09,-0.19c-0.61,-0.48 -0.71,-0.87 -0.3,-1.44c0.4,-0.87 1.11,-1.25 2.13,-1.25l1.92,0c0.61,0 1.22,-0.1 1.82,0c0.61,0.1 1.22,0.29 1.62,0.58c1.12,0.76 1.12,1.63 -0.1,2.3Zm-5.97,-6.34c-0,-1.34 1.21,-2.49 2.63,-2.49c1.42,0 2.63,1.15 2.63,2.49c-0,1.35 -1.21,2.5 -2.63,2.5c-1.42,0 -2.63,-1.15 -2.63,-2.5Zm7.9,4.61c-0.61,-1.15 -1.42,-1.82 -2.53,-2.11c1.21,-2.59 1.11,-4.03 -0.41,-5.18c-1.42,-1.06 -3.24,-1.06 -4.56,-0.1c-1.62,1.15 -1.72,2.59 -0.51,5.28c-1.11,0.29 -1.92,0.96 -2.53,2.11c-0.91,-1.34 -1.31,-2.59 -1.11,-4.03c0.71,-4.42 5.27,-6.72 9.52,-4.7c0.71,0.48 1.72,1.24 2.43,2.4c0.31,0.76 0.61,1.44 0.71,2.2c0.3,1.44 -0.1,2.79 -1.01,4.13Z" style="fill:#fff;"/>
</svg>
