<?xml version="1.0" encoding="UTF-8" standalone="no"?><!DOCTYPE svg PUBLIC "-//W3C//DTD SVG 1.1//EN" "http://www.w3.org/Graphics/SVG/1.1/DTD/svg11.dtd">
<svg width="100%" height="100%" viewBox="0 0 47 44" version="1.1"
  xmlns="http://www.w3.org/2000/svg"
  xmlns:xlink="http://www.w3.org/1999/xlink" xml:space="preserve"
  xmlns:serif="http://www.serif.com/" style="fill-rule:evenodd;clip-rule:evenodd;stroke-linejoin:round;stroke-miterlimit:2;">
  <path d="M6.893,27.773l-0,3.484l4.19,-0c0.78,-0 0.98,0.275 0.98,0.917l-0,6.051c-0,0.55 -0.2,0.733 -0.78,0.733c-3.41,0.092 -6.92,0.092 -10.33,-0c-0.59,-0 -0.78,-0.183 -0.78,-0.733l-0,-6.143c-0,-0.55 0.19,-0.825 0.88,-0.825l4.29,-0c-0,-0.183 0.09,-0.367 0.09,-0.458l-0,-3.301c-0,-0.825 0.2,-1.1 1.07,-1.1l11.6,-0c0.29,-0 0.59,-0.091 0.88,-0.275c1.07,-1.1 2.34,-2.2 3.51,-3.392c0.09,-0.091 0.29,-0.366 0.29,-0.642l-0,-3.208c-0.1,-0 -0.2,-0.092 -0.29,-0.092c-0.88,-0 -1.08,-0.183 -1.27,-0.917l-0,-0.183c-0.1,-1.1 -0.1,-1.1 -1.27,-1.559c-0.09,-0 -0.29,-0 -0.39,0.092c-0.39,0.275 -0.78,0.459 -1.07,0.825c-0.39,0.275 -0.68,0.275 -0.97,-0c-0.78,-0.642 -1.47,-1.375 -2.15,-2.017c-0.29,-0.275 -0.29,-0.55 -0.09,-0.825c0.29,-0.366 0.58,-0.733 0.87,-1.1c0.1,-0.092 0.1,-0.367 0.1,-0.55c-0,-0.092 -0.2,-0.183 -0.2,-0.275c-0.09,-0.642 -0.58,-0.733 -1.16,-0.733c-0.2,-0 -0.49,-0.092 -0.69,-0.092c-0.39,-0.092 -0.68,-0.275 -0.68,-0.642l-0,-2.75c-0,-0.367 0.29,-0.642 0.68,-0.642c0.39,-0.092 0.88,-0.183 1.27,-0.183c0.29,-0.092 0.39,-0.184 0.58,-0.459c0.39,-0.641 0.3,-1.191 -0.29,-1.741c-0.78,-0.826 -0.78,-0.917 0.1,-1.742c0.58,-0.459 1.07,-0.917 1.46,-1.375c0.39,-0.367 0.68,-0.367 1.07,-0.092c0.3,0.275 0.69,0.55 1.08,0.733c0.19,0.092 0.39,0.184 0.48,0.184c0.3,-0.092 0.69,-0.275 0.98,-0.367c0.09,-0.092 0.19,-0.275 0.19,-0.367c0.1,-0.367 0.1,-0.825 0.2,-1.283c0.09,-0.367 0.29,-0.642 0.78,-0.642l2.82,-0c0.49,-0 0.78,0.275 0.78,0.733c0.1,0.275 0.1,0.55 0.1,0.825c0.1,0.184 -0,0.551 0.2,0.642c0.29,0.184 0.77,0.367 1.16,0.459c0.2,-0 0.49,-0.275 0.69,-0.367c0.29,-0.183 0.48,-0.367 0.78,-0.55c0.29,-0.275 0.58,-0.184 0.87,0.092c0.69,0.641 1.37,1.283 2.05,1.925c0.29,0.275 0.39,0.55 0.1,0.917c-0.3,0.275 -0.59,0.641 -0.78,1.008c-0.1,0.092 -0.2,0.275 -0.2,0.367c0.1,0.366 0.3,0.641 0.39,1.008c0.1,0.092 0.29,0.092 0.39,0.183c0.39,-0 0.78,0.092 1.27,0.184c0.58,-0 0.78,0.275 0.78,0.825l-0,2.384c-0,0.55 -0.29,0.825 -0.88,0.916c-0.1,-0 -0.29,0.092 -0.39,0.092c-0.97,-0.183 -1.26,0.458 -1.56,1.192c-0,0.091 0.1,0.275 0.2,0.458c0.19,0.367 0.48,0.642 0.78,1.009c0.29,0.275 0.19,0.641 -0.1,0.825c-0.68,0.733 -1.36,1.375 -2.05,2.017c-0.29,0.183 -0.58,0.275 -0.87,-0c-0.39,-0.275 -0.78,-0.459 -1.17,-0.734c-0.1,-0.092 -0.3,-0.183 -0.39,-0.092c-0.39,0.092 -0.69,0.184 -1.07,0.367c-0.1,-0 -0.1,0.184 -0.2,0.275c-0,0.367 -0.1,0.734 -0.1,1.1c-0.09,0.459 -0.29,0.642 -0.78,0.642l-0.68,-0c-0,0.733 0.1,1.467 -0,2.109c-0.19,1.191 0.2,2.017 1.17,2.75c0.88,0.733 1.66,1.558 2.53,2.384c0.3,0.275 0.69,0.366 1.08,0.366l11.4,-0c0.97,-0 1.17,0.184 1.17,1.1l-0,3.759l4.19,-0c0.78,-0 0.97,0.275 0.97,0.917c0.1,2.017 0.1,3.942 -0,5.959c-0,0.642 -0.19,0.825 -0.97,0.825l-9.94,-0c-0.78,-0 -1.07,-0.183 -1.07,-0.917l-0,-5.867c-0,-0.642 0.29,-0.917 1.07,-0.917l4.19,-0l-0,-3.484l-0.39,-0c-3.7,-0 -7.51,-0.091 -11.21,-0c-0.19,-0 -0.49,0.092 -0.68,0.275c-1.17,1.009 -2.14,2.017 -3.22,3.026c-0.19,0.092 -0.29,0.275 -0.29,0.458l-0,3.026c0.49,0.183 1.07,0.366 1.56,0.55c1.85,1.008 2.83,2.475 2.63,4.492c-0.19,1.925 -1.27,3.3 -3.12,3.942c-2.24,0.825 -4.29,0.275 -5.84,-1.65c-1.37,-1.65 -1.27,-3.942 0.19,-5.501c0.68,-0.917 1.66,-1.467 2.73,-1.742c0.29,-0 0.39,-0.183 0.39,-0.458l-0,-2.567c-0,-0.183 -0.2,-0.458 -0.29,-0.55c-1.08,-1.009 -2.15,-2.109 -3.32,-3.117c-0.09,-0.092 -0.29,-0.184 -0.48,-0.184l-11.8,-0Zm11.11,-12.009c0.39,-0.367 0.78,-0.55 1.08,-0.825c0.39,-0.275 0.68,-0.367 1.17,-0.184c0.39,0.275 0.77,0.459 1.16,0.55c0.78,0.092 1.08,0.55 1.08,1.284c0.09,0.917 0.09,0.917 1.07,0.917l0.29,-0c0.39,-0 0.49,-0.092 0.59,-0.367c-0,-0.367 0.09,-0.734 0.09,-1.1c0.1,-0.275 0.3,-0.459 0.59,-0.642c0.58,-0.183 1.17,-0.367 1.75,-0.642c0.29,-0.183 0.59,-0.183 0.88,0.092c0.39,0.275 0.78,0.55 1.17,0.825c0.39,-0.367 0.78,-0.733 1.27,-1.1c-0.3,-0.367 -0.59,-0.642 -0.88,-1.008c-0.29,-0.276 -0.29,-0.642 -0.1,-1.009c0.2,-0.55 0.39,-1.008 0.59,-1.558c0.19,-0.367 0.39,-0.551 0.78,-0.551c0.48,-0.091 0.97,-0.183 1.46,-0.183l-0,-1.65c-0.49,-0 -0.98,-0.092 -1.37,-0.183c-0.48,-0 -0.68,-0.184 -0.87,-0.642c-0.2,-0.459 -0.39,-0.917 -0.59,-1.375c-0.19,-0.459 -0.19,-0.734 0.1,-1.1c0.29,-0.275 0.58,-0.642 0.78,-0.917c-0.39,-0.459 -0.78,-0.825 -1.17,-1.192c-0.39,0.275 -0.68,0.458 -1.07,0.733c-0.3,0.275 -0.69,0.367 -1.08,0.184c-0.58,-0.275 -1.07,-0.459 -1.65,-0.642c-0.29,-0.092 -0.49,-0.275 -0.59,-0.642c-0,-0.458 -0.09,-1.008 -0.19,-1.467l-1.46,-0c-0.1,-0 -0.3,0.184 -0.3,0.275c-0.09,0.367 -0.09,0.734 -0.19,1.192c-0,0.367 -0.2,0.55 -0.59,0.642c-0.48,0.183 -1.07,0.367 -1.55,0.642c-0.49,0.183 -0.78,0.183 -1.17,-0.184c-0.3,-0.275 -0.69,-0.458 -0.98,-0.733c-0.39,0.458 -0.88,0.825 -1.27,1.192c0.3,0.275 0.59,0.642 0.88,0.917c0.29,0.366 0.29,0.641 0.1,1.008c-0.2,0.458 -0.49,0.917 -0.59,1.375c-0.19,0.55 -0.48,0.734 -0.97,0.825c-0.49,-0 -0.88,0.092 -1.27,0.092l-0,1.65c0.49,-0 0.98,0.092 1.46,0.183c0.3,-0 0.59,0.184 0.69,0.551c0.19,0.55 0.48,1.1 0.68,1.558c0.19,0.367 0.19,0.642 -0.1,0.917c-0.29,0.367 -0.58,0.733 -0.88,1.008c0.49,0.459 0.78,0.825 1.17,1.284Zm18.33,21.911l8.67,-0c0.39,-0 0.39,-0.184 0.39,-0.459l-0,-4.492l-9.06,-0l-0,4.951Zm-25.64,-4.951l-9.06,-0l-0,4.951l9.06,-0l-0,-4.951Zm12.77,3.117c-1.95,-0 -3.51,1.467 -3.51,3.392c-0,1.834 1.56,3.3 3.51,3.392c1.95,-0 3.61,-1.558 3.61,-3.392c-0,-1.833 -1.56,-3.3 -3.61,-3.392Zm-3.31,-8.984c1.17,1.1 2.24,2.108 3.31,3.117c1.07,-1.009 2.24,-2.109 3.31,-3.117c-1.07,-1.009 -2.24,-2.017 -3.31,-3.117c-1.07,1.1 -2.24,2.108 -3.31,3.117Z" style="fill:#fff;"/>
  <path d="M18.293,9.373c-0,-2.667 2.34,-4.874 5.17,-4.874c2.83,-0.092 5.17,2.207 5.17,4.874c0.1,2.667 -2.24,4.874 -5.17,4.874c-2.83,-0 -5.17,-2.207 -5.17,-4.874Zm5.17,-4.046c-2.24,-0 -4.29,1.931 -4.29,4.046c-0,2.115 2.14,4.046 4.39,4.046c2.15,-0 4.29,-2.023 4.19,-4.046c-0,-2.207 -1.95,-4.046 -4.29,-4.046Z" style="fill:#fff;"/>
  <rect x="37.733" y="34.047" width="6.24" height="2.28" style="fill:#fff;"/>
  <path d="M9.173,36.327l-6.12,-0l-0,-1.972c-0,-0.094 0.19,-0.188 0.29,-0.188l5.83,-0l-0,2.16Z" style="fill:#fff;"/>
  <path d="M23.463,37.287c1.17,-0 2.15,0.943 2.15,1.98c-0.1,1.131 -0.98,1.98 -2.15,1.98c-1.07,-0 -2.05,-0.943 -2.05,-1.98c-0,-1.037 0.98,-1.98 2.05,-1.98Z" style="fill:#fff;"/>
</svg>
