<?xml version="1.0" encoding="UTF-8" standalone="no"?><!DOCTYPE svg PUBLIC "-//W3C//DTD SVG 1.1//EN" "http://www.w3.org/Graphics/SVG/1.1/DTD/svg11.dtd">
<svg width="100%" height="100%" viewBox="0 0 39 36" version="1.1"
  xmlns="http://www.w3.org/2000/svg"
  xmlns:xlink="http://www.w3.org/1999/xlink" xml:space="preserve"
  xmlns:serif="http://www.serif.com/" style="fill-rule:evenodd;clip-rule:evenodd;stroke-linejoin:round;stroke-miterlimit:2;">
  <path d="M18.76,21.756l0,-7.27l-3.91,0c-1.05,0 -1.14,-0.09 -1.14,-1.08l0,-12.13c0,-0.99 0.09,-1.08 1.14,-1.08c1.81,0 3.63,-0.09 5.44,0c0.38,0 0.76,0.18 1.05,0.36c1.14,0.99 2.28,2.07 3.33,3.14c0.19,0.27 0.39,0.63 0.39,0.9c0.09,2.97 0,5.93 0.09,8.99c0,0.63 -0.29,0.9 -1.05,0.9l-4.1,0c0,2.33 0,4.67 0.1,6.91c0,0.18 0.38,0.45 0.57,0.54c4.1,1.08 8.2,2.25 12.4,3.42c2.57,0.72 2.09,0.18 2.09,2.69c0.1,0.9 0,1.8 0.1,2.7c0,0.63 -0.19,0.9 -0.86,1.08c-4.86,1.34 -9.73,2.69 -14.59,3.95c-0.29,0.09 -0.57,0.09 -0.86,0c-4.86,-1.26 -9.63,-2.61 -14.49,-3.95c-0.67,-0.18 -0.86,-0.45 -0.86,-1.08l0,-3.86c0,-0.72 0.19,-1.08 0.95,-1.26c4.39,-1.17 8.78,-2.34 13.16,-3.6c0.38,-0.09 0.67,-0.18 1.05,-0.27Zm-11.92,4.5l0,0.18c0.1,0 0.19,0.09 0.29,0.09c3.91,1.07 7.91,2.15 11.82,3.23c0.38,0.09 0.77,0.09 1.15,0c3.24,-0.9 6.39,-1.8 9.63,-2.7c0.76,-0.17 1.52,-0.35 2.29,-0.62l-0,-0.18c-4.01,-1.08 -7.92,-2.16 -11.92,-3.24l-0,2.97c-0,0 0.09,0 0.19,0.09c0.28,-0.45 0.66,-0.9 1.05,-1.35c0.47,0.36 0.66,0.63 1.05,0.9c-0.86,0.81 -1.63,1.61 -2.48,2.33c-0.19,0.09 -0.77,0.18 -0.96,0c-0.86,-0.72 -1.62,-1.52 -2.38,-2.24c0.28,-0.36 0.48,-0.63 0.95,-1.08c0.38,0.45 0.76,0.9 1.24,1.53l-0,-3.15c-4,1.08 -8.01,2.16 -11.92,3.24Zm8.2,-24.89l0,11.86l8.78,0l0,-8.27l-2.87,0c-0.66,0 -0.95,-0.27 -0.95,-0.9c0.1,-0.9 0,-1.7 0,-2.69l-4.96,0Zm-10.11,29.29c4.58,1.26 9.16,2.6 13.83,3.86l0,-3.5c-4.58,-1.26 -9.25,-2.52 -13.83,-3.87l0,3.51Zm28.99,0.09l0,-3.6c-4.67,1.35 -9.25,2.61 -13.82,3.87l-0,3.5c4.67,-1.26 9.15,-2.51 13.82,-3.77Zm-11.34,-27.05c-0.39,-0.45 -0.77,-0.89 -1.24,-1.25l-0,1.25l1.24,0Z" style="fill:#fff;"/>
  <path d="M6.84,14.526c0.1,1.08 0.76,1.71 1.71,1.8l1.81,0c1.99,0 3.32,1.26 3.32,3.16l0,0.54c0.1,0.09 0.1,0.09 0.19,0.18c0.38,-0.54 0.76,-0.99 1.14,-1.53c0.38,0.54 0.67,0.72 0.95,1.08c-0.76,0.72 -1.61,1.53 -2.47,2.34c-0.19,0.09 -0.66,0.09 -0.85,0c-0.86,-0.72 -1.71,-1.53 -2.57,-2.34c0.38,-0.27 0.67,-0.54 0.95,-0.81c0.38,0.36 0.86,0.72 1.33,1.17c0.29,-1.63 -0.47,-2.62 -2.18,-2.62l-0.95,0c-2.28,0 -3.33,-0.81 -3.8,-2.97l-3.99,0c-0.67,0 -0.95,-0.27 -0.95,-0.9l0,-12.53c0,-0.63 0.19,-0.99 0.85,-0.9c2,0 3.9,-0.09 5.8,0c0.28,0 0.66,0.09 0.85,0.36c1.24,0.99 2.38,2.16 3.52,3.25c0.19,0.18 0.28,0.54 0.28,0.81l0,9.1c0,0.54 -0.28,0.81 -0.85,0.81l-4.09,0Zm3.61,-1.26l0,-8.29c-0.95,0 -1.9,-0.09 -2.75,0c-0.67,0 -0.95,-0.27 -0.95,-0.9l0,-2.62l-4.94,0l0,11.81l8.64,0Zm-2.37,-10.91l0,1.35l1.33,0c-0.38,-0.45 -0.86,-0.9 -1.33,-1.35Z" style="fill:#fff;"/>
  <path d="M32.05,14.466l-3.96,0c-0.97,0 -1.16,-0.09 -1.16,-0.99l0,-12.29c0,-0.9 0.19,-0.99 1.06,-0.99c1.84,0 3.77,-0.09 5.6,0c0.39,0 0.87,0.18 1.16,0.45c1.07,0.99 2.22,1.97 3.29,3.05c0.19,0.27 0.38,0.63 0.38,0.99c0.1,2.96 0.1,5.83 0.1,8.79c0,0.81 -0.19,0.99 -1.06,0.99l-4.06,0c-0.48,2.16 -1.45,2.96 -3.86,2.96l-0.68,0c-1.93,0 -2.61,0.63 -2.51,2.61c0.48,-0.45 0.97,-0.81 1.45,-1.26c0.29,0.36 0.48,0.63 0.68,0.9c-0.68,0.71 -1.55,1.61 -2.52,2.33c-0.09,0.18 -0.58,0.09 -0.77,-0.09c-0.87,-0.72 -1.64,-1.44 -2.51,-2.24c0.39,-0.27 0.68,-0.45 1.16,-0.81c0.19,0.36 0.58,0.81 0.87,1.26c0.09,0 0.19,-0.09 0.29,-0.18l0,-0.81c0.09,-1.62 1.45,-2.87 3.19,-2.87c0.67,-0.09 1.25,0 1.93,0c1.16,-0.09 1.83,-0.72 1.93,-1.8Zm5.12,-1.26l0,-8.25l-2.03,0c-1.74,0 -1.74,0 -1.74,-1.71l0,-1.88l-5.12,0l0,11.84l8.89,0Zm-2.51,-10.86l0,1.35l1.45,0c-0.49,-0.45 -0.87,-0.9 -1.45,-1.35Z" style="fill:#fff;"/>
  <rect x="16.32" y="6.226" width="6.12" height="1.08" style="fill:#fff;"/>
  <rect x="16.32" y="8.506" width="6.12" height="1.08" style="fill:#fff;"/>
  <rect x="16.32" y="3.826" width="2.4" height="1.08" style="fill:#fff;"/>
  <rect x="16.32" y="10.906" width="1.08" height="1.08" style="fill:#fff;"/>
  <rect x="18.84" y="10.906" width="1.2" height="1.08" style="fill:#fff;"/>
  <rect x="21.36" y="10.906" width="1.08" height="1.08" style="fill:#fff;"/>
  <rect x="3" y="6.106" width="6.12" height="1.2" style="fill:#fff;"/>
  <rect x="3" y="8.506" width="6.12" height="1.08" style="fill:#fff;"/>
  <rect x="3" y="10.906" width="6.12" height="1.08" style="fill:#fff;"/>
  <rect x="3" y="3.826" width="2.4" height="1.08" style="fill:#fff;"/>
  <rect x="29.52" y="6.106" width="6.36" height="1.2" style="fill:#fff;"/>
  <rect x="29.52" y="8.506" width="6.36" height="1.08" style="fill:#fff;"/>
  <rect x="29.52" y="10.906" width="6.36" height="1.08" style="fill:#fff;"/>
  <rect x="29.52" y="3.826" width="2.52" height="1.08" style="fill:#fff;"/>
</svg>
