<?xml version="1.0" encoding="UTF-8" standalone="no"?>
<!DOCTYPE svg PUBLIC "-//W3C//DTD SVG 1.1//EN" "http://www.w3.org/Graphics/SVG/1.1/DTD/svg11.dtd">
<svg width="100%" height="100%" viewBox="0 0 200 61" version="1.1"
  xmlns="http://www.w3.org/2000/svg"
  xmlns:xlink="http://www.w3.org/1999/xlink" xml:space="preserve"
  xmlns:serif="http://www.serif.com/" style="fill-rule:evenodd;clip-rule:evenodd;stroke-linejoin:round;stroke-miterlimit:2;">
  <g>
    <path d="M17.86,47.588c-0.999,0 -1.817,-0.314 -2.456,-0.942c-0.639,-0.628 -0.958,-1.403 -0.958,-2.327l-0,-38.586l6.924,0l0,38.586c0,0.924 -0.33,1.699 -0.99,2.327c-0.66,0.628 -1.5,0.942 -2.52,0.942Zm-14.591,-38.924c-0.923,0 -1.699,-0.287 -2.327,-0.861c-0.628,-0.575 -0.942,-1.324 -0.942,-2.247c-0,-0.923 0.314,-1.664 0.942,-2.222c0.628,-0.559 1.404,-0.838 2.327,-0.838l29.278,0c0.923,0 1.699,0.287 2.327,0.862c0.628,0.574 0.942,1.323 0.942,2.246c0,0.934 -0.314,1.678 -0.942,2.231c-0.628,0.553 -1.404,0.829 -2.327,0.829l-29.278,0Z" style="fill-rule:nonzero;"/>
    <path d="M35.124,47.588c-0.934,0 -1.705,-0.314 -2.311,-0.942c-0.607,-0.628 -0.91,-1.403 -0.91,-2.327l-0,-27.345c-0,-0.923 0.306,-1.699 0.918,-2.327c0.612,-0.628 1.379,-0.942 2.303,-0.942c0.934,-0 1.704,0.314 2.311,0.942c0.606,0.628 0.909,1.404 0.909,2.327l0,7.263l-0.611,-2.818c0.354,-1.192 0.885,-2.3 1.594,-3.326c0.708,-1.025 1.557,-1.924 2.544,-2.697c0.988,-0.773 2.086,-1.372 3.294,-1.796c1.207,-0.424 2.477,-0.636 3.808,-0.636c1.117,0 2.091,0.295 2.923,0.886c0.832,0.59 1.248,1.336 1.248,2.238c0,1.16 -0.3,2.005 -0.901,2.537c-0.602,0.531 -1.267,0.797 -1.997,0.797c-0.677,-0 -1.31,-0.137 -1.901,-0.411c-0.59,-0.274 -1.293,-0.41 -2.109,-0.41c-0.924,-0 -1.85,0.238 -2.778,0.716c-0.929,0.478 -1.78,1.176 -2.553,2.094c-0.773,0.918 -1.393,2.002 -1.86,3.253c-0.467,1.251 -0.701,2.644 -0.701,4.179l0,15.476c0,0.924 -0.306,1.699 -0.917,2.327c-0.612,0.628 -1.38,0.942 -2.303,0.942Z" style="fill-rule:nonzero;"/>
    <path d="M80.86,13.705c0.934,-0 1.704,0.314 2.311,0.942c0.607,0.628 0.91,1.404 0.91,2.327l-0,16.958c-0,4.455 -1.243,7.942 -3.728,10.46c-2.486,2.517 -5.999,3.776 -10.541,3.776c-4.53,0 -8.03,-1.259 -10.5,-3.776c-2.469,-2.518 -3.704,-6.005 -3.704,-10.46l0,-16.958c0,-0.923 0.306,-1.699 0.918,-2.327c0.612,-0.628 1.38,-0.942 2.303,-0.942c0.934,-0 1.705,0.314 2.311,0.942c0.607,0.628 0.91,1.404 0.91,2.327l0,16.958c0,2.781 0.663,4.861 1.989,6.24c1.326,1.38 3.25,2.07 5.773,2.07c2.566,-0 4.512,-0.69 5.838,-2.07c1.326,-1.379 1.989,-3.459 1.989,-6.24l0,-16.958c0,-0.923 0.303,-1.699 0.91,-2.327c0.607,-0.628 1.377,-0.942 2.311,-0.942Z" style="fill-rule:nonzero;"/>
    <path d="M103.229,48.233c-3.092,0.01 -5.841,-0.411 -8.246,-1.265c-2.404,-0.853 -4.707,-2.268 -6.908,-4.243c-0.44,-0.376 -0.784,-0.808 -1.031,-1.297c-0.247,-0.488 -0.37,-0.99 -0.37,-1.505c-0,-0.827 0.303,-1.562 0.91,-2.207c0.606,-0.644 1.355,-0.966 2.246,-0.966c0.709,0 1.347,0.242 1.917,0.725c1.653,1.492 3.371,2.625 5.153,3.398c1.782,0.773 3.87,1.159 6.265,1.159c1.739,0 3.322,-0.273 4.75,-0.821c1.428,-0.548 2.572,-1.299 3.431,-2.255c0.858,-0.955 1.288,-2.056 1.288,-3.301c-0.011,-1.514 -0.451,-2.775 -1.321,-3.784c-0.869,-1.01 -2.128,-1.855 -3.776,-2.537c-1.648,-0.682 -3.642,-1.243 -5.983,-1.683c-2.136,-0.408 -4.058,-0.958 -5.765,-1.651c-1.707,-0.692 -3.159,-1.564 -4.357,-2.616c-1.197,-1.053 -2.112,-2.309 -2.745,-3.769c-0.634,-1.46 -0.95,-3.14 -0.95,-5.041c-0,-2.619 0.681,-4.882 2.045,-6.788c1.363,-1.905 3.229,-3.371 5.596,-4.396c2.367,-1.025 5.027,-1.538 7.98,-1.538c2.705,0 5.242,0.424 7.609,1.272c2.367,0.848 4.281,1.976 5.741,3.382c1.042,0.891 1.562,1.858 1.562,2.899c0,0.784 -0.314,1.503 -0.942,2.158c-0.628,0.655 -1.361,0.982 -2.198,0.982c-0.569,0 -1.074,-0.177 -1.514,-0.531c-0.708,-0.709 -1.634,-1.358 -2.778,-1.949c-1.143,-0.59 -2.37,-1.073 -3.68,-1.449c-1.309,-0.376 -2.576,-0.564 -3.8,-0.564c-1.911,0 -3.557,0.263 -4.936,0.789c-1.38,0.526 -2.44,1.254 -3.181,2.182c-0.741,0.929 -1.111,2.027 -1.111,3.294c-0,1.46 0.424,2.662 1.272,3.607c0.848,0.945 2.024,1.707 3.527,2.287c1.503,0.58 3.226,1.1 5.17,1.562c2.34,0.494 4.444,1.066 6.312,1.715c1.869,0.65 3.449,1.476 4.743,2.48c1.294,1.004 2.279,2.266 2.955,3.785c0.677,1.519 1.015,3.384 1.015,5.596c-0,2.587 -0.722,4.847 -2.166,6.78c-1.444,1.933 -3.366,3.43 -5.765,4.493c-2.4,1.063 -5.055,1.6 -7.964,1.611Z" style="fill-rule:nonzero;"/>
    <path d="M148.353,13.447c0.934,0 1.705,0.314 2.311,0.942c0.607,0.628 0.91,1.404 0.91,2.327l0,27.716c0,3.79 -0.722,6.863 -2.166,9.22c-1.444,2.356 -3.384,4.082 -5.822,5.177c-2.437,1.095 -5.18,1.643 -8.229,1.643c-1.524,-0 -3.062,-0.14 -4.614,-0.419c-1.551,-0.279 -2.821,-0.666 -3.808,-1.159c-1.042,-0.473 -1.769,-1.061 -2.183,-1.764c-0.413,-0.703 -0.485,-1.452 -0.217,-2.246c0.333,-1.02 0.862,-1.715 1.586,-2.086c0.725,-0.37 1.479,-0.4 2.263,-0.088c0.698,0.268 1.651,0.646 2.858,1.135c1.208,0.488 2.591,0.733 4.147,0.733c2.105,-0 3.881,-0.347 5.331,-1.039c1.449,-0.693 2.555,-1.772 3.317,-3.237c0.763,-1.466 1.144,-3.358 1.144,-5.677l-0,-4.429l1.047,1.563c-0.698,1.385 -1.611,2.555 -2.738,3.51c-1.127,0.956 -2.445,1.689 -3.954,2.199c-1.508,0.51 -3.191,0.765 -5.049,0.765c-2.372,-0 -4.407,-0.527 -6.103,-1.579c-1.696,-1.052 -2.998,-2.509 -3.905,-4.372c-0.908,-1.863 -1.361,-4.007 -1.361,-6.434l-0,-19.132c-0,-0.923 0.303,-1.699 0.91,-2.327c0.606,-0.628 1.377,-0.942 2.311,-0.942c0.934,0 1.704,0.314 2.311,0.942c0.606,0.628 0.91,1.404 0.91,2.327l-0,17.393c-0,2.856 0.628,4.936 1.884,6.24c1.256,1.305 3.108,1.957 5.556,1.957c1.61,0 3.019,-0.338 4.227,-1.014c1.208,-0.677 2.161,-1.635 2.859,-2.875c0.698,-1.24 1.046,-2.676 1.046,-4.308l0,-17.393c0,-0.923 0.304,-1.699 0.91,-2.327c0.607,-0.628 1.377,-0.942 2.311,-0.942Z" style="fill-rule:nonzero;"/>
    <path d="M171.898,0c0.837,0 1.683,0.107 2.536,0.322c0.854,0.215 1.573,0.572 2.158,1.071c0.585,0.499 0.878,1.168 0.878,2.005c0,0.88 -0.263,1.589 -0.789,2.126c-0.526,0.537 -1.138,0.805 -1.836,0.805c-0.397,0 -0.961,-0.105 -1.691,-0.314c-0.73,-0.209 -1.46,-0.314 -2.19,-0.314c-1.02,-0 -1.831,0.225 -2.432,0.676c-0.601,0.451 -1.028,1.01 -1.28,1.675c-0.253,0.666 -0.379,1.331 -0.379,1.997l0,34.27c0,0.924 -0.306,1.699 -0.918,2.327c-0.612,0.628 -1.379,0.942 -2.303,0.942c-0.934,0 -1.704,-0.314 -2.311,-0.942c-0.606,-0.628 -0.909,-1.403 -0.909,-2.327l-0,-34.222c-0,-2.952 0.982,-5.373 2.947,-7.263c1.964,-1.889 4.804,-2.834 8.519,-2.834Zm1.272,14.285c0.859,-0 1.576,0.279 2.15,0.837c0.574,0.558 0.862,1.267 0.862,2.126c-0,0.859 -0.288,1.567 -0.862,2.126c-0.574,0.558 -1.291,0.837 -2.15,0.837l-16.636,-0c-0.848,-0 -1.562,-0.282 -2.142,-0.846c-0.579,-0.563 -0.869,-1.269 -0.869,-2.117c-0,-0.87 0.29,-1.581 0.869,-2.134c0.58,-0.553 1.294,-0.829 2.142,-0.829l16.636,-0Z" style="fill-rule:nonzero;"/>
    <path d="M181.802,14.124l15.186,-0c0.859,-0 1.576,0.289 2.15,0.869c0.575,0.58 0.862,1.294 0.862,2.142c0,0.827 -0.287,1.519 -0.862,2.077c-0.574,0.559 -1.291,0.838 -2.15,0.838l-15.186,-0c-0.848,-0 -1.562,-0.29 -2.142,-0.87c-0.58,-0.579 -0.869,-1.293 -0.869,-2.142c-0,-0.826 0.289,-1.519 0.869,-2.077c0.58,-0.558 1.294,-0.837 2.142,-0.837Zm6.812,-8.407c0.934,0 1.697,0.314 2.287,0.942c0.591,0.628 0.886,1.404 0.886,2.327l-0,29.89c-0,0.805 0.134,1.436 0.402,1.892c0.269,0.456 0.626,0.773 1.071,0.95c0.446,0.177 0.91,0.266 1.393,0.266c0.462,0 0.881,-0.083 1.256,-0.25c0.376,-0.166 0.811,-0.249 1.305,-0.249c0.526,-0 1.001,0.239 1.425,0.716c0.424,0.478 0.636,1.125 0.636,1.941c0,0.999 -0.553,1.823 -1.658,2.472c-1.106,0.65 -2.314,0.974 -3.624,0.974c-0.741,0 -1.605,-0.059 -2.593,-0.177c-0.987,-0.118 -1.938,-0.44 -2.85,-0.966c-0.913,-0.526 -1.675,-1.361 -2.287,-2.504c-0.612,-1.144 -0.918,-2.741 -0.918,-4.791l0,-30.164c0,-0.923 0.314,-1.699 0.942,-2.327c0.628,-0.628 1.404,-0.942 2.327,-0.942Z" style="fill-rule:nonzero;"/>
  </g>
</svg>
