<?xml version="1.0" encoding="UTF-8" standalone="no"?>
<!DOCTYPE svg PUBLIC "-//W3C//DTD SVG 1.1//EN" "http://www.w3.org/Graphics/SVG/1.1/DTD/svg11.dtd">
<svg width="100%" height="100%" viewBox="0 0 272 94" version="1.1"
  xmlns="http://www.w3.org/2000/svg"
  xmlns:xlink="http://www.w3.org/1999/xlink" xml:space="preserve"
  xmlns:serif="http://www.serif.com/" style="fill-rule:evenodd;clip-rule:evenodd;stroke-linejoin:round;stroke-miterlimit:2;">
  <g id="logo">
    <g id="dots">
      <path id="dot" d="M251.86,31.16c0,16.679 -13.52,30.199 -30.196,30.199c-16.679,0 -30.199,-13.52 -30.199,-30.199c-0,-16.679 13.52,-30.196 30.199,-30.196c16.676,-0 30.196,13.517 30.196,30.196" style="fill:#e3cff4;fill-opacity:0.8;"/>
      <path id="dot1" serif:id="dot" d="M73.674,72.103c-0,11.562 -9.373,20.933 -20.932,20.933c-11.562,0 -20.935,-9.371 -20.935,-20.933c0,-11.563 9.373,-20.934 20.935,-20.934c11.559,0 20.932,9.371 20.932,20.934" style="fill:#d6f1e7;fill-opacity:0.8;"/>
    </g>
    <g id="logotype">
      <path id="t" d="M260.913,74.834c-2.851,-0 -4.851,-0.6 -6,-1.8c-1.151,-1.2 -1.726,-3.1 -1.726,-5.7l0,-27.75l-5.099,-0l-0,-4.35l1.274,-0c1.851,-0 3.125,-0.325 3.825,-0.975c0.7,-0.65 1.276,-1.6 1.726,-2.85l2.325,-6.6l4.35,-0l-0,10.425l9.375,-0l-0,4.35l-9.375,-0l-0,30.375l9.375,-0l-0,3.3c-0.851,0.4 -2.213,0.762 -4.088,1.087c-1.875,0.325 -3.863,0.488 -5.962,0.488Z" style="fill-rule:nonzero;"/>
      <path id="f" d="M221.687,70.184l5.1,-0l0,-30.6l-5.1,-0l0,-4.35l5.1,-0l0,-4.725c0,-2 0.325,-3.825 0.975,-5.475c0.65,-1.65 1.588,-3.05 2.813,-4.2c1.225,-1.15 2.7,-2.038 4.425,-2.663c1.725,-0.625 3.662,-0.937 5.813,-0.937c3,-0 5.312,0.625 6.937,1.875c1.625,1.25 2.438,2.85 2.438,4.8c-0,1.45 -0.413,2.6 -1.238,3.45c-0.825,0.85 -1.887,1.275 -3.188,1.275c-1.35,-0 -2.399,-0.388 -3.149,-1.163c-0.75,-0.775 -1.125,-1.737 -1.125,-2.887c-0,-0.9 0.2,-1.638 0.599,-2.213c0.401,-0.575 0.875,-0.987 1.425,-1.237l0,-0.225c-0.6,-0.15 -1.375,-0.225 -2.325,-0.225c-4,-0 -6,2.825 -6,8.475l0,6.075l8.1,-0l0,4.35l-8.1,-0l0,30.6l6.6,-0l0,4.05l-20.1,-0l0,-4.05Z" style="fill-rule:nonzero;"/>
      <path id="y" d="M186.362,90.134c-2.7,-0 -4.737,-0.625 -6.112,-1.875c-1.375,-1.25 -2.063,-2.8 -2.063,-4.65c0,-1.55 0.413,-2.763 1.238,-3.638c0.825,-0.875 1.987,-1.312 3.487,-1.312c1.4,-0 2.488,0.425 3.263,1.275c0.775,0.85 1.162,1.925 1.162,3.225c0,0.75 -0.162,1.412 -0.487,1.987c-0.325,0.575 -0.688,0.988 -1.088,1.238l0,0.3c0.25,0.1 0.488,0.15 0.713,0.15l0.862,-0c2.7,-0 5.025,-2.525 6.975,-7.575l1.2,-3.3l-14.25,-36.675l-3.75,-0l0,-4.05l17.775,-0l0,4.05l-5.025,-0l9.301,26.025l0.375,-0l9.225,-26.025l-4.951,-0l0,-4.05l13.726,-0l-0,4.05l-3.75,-0l-15.676,40.35c-0.55,1.35 -1.187,2.662 -1.912,3.937c-0.725,1.275 -1.575,2.4 -2.55,3.375c-0.975,0.975 -2.088,1.75 -3.338,2.325c-1.25,0.575 -2.7,0.863 -4.35,0.863Z" style="fill-rule:nonzero;"/>
      <path id="s" d="M154.637,75.134c-3.1,-0 -5.612,-0.525 -7.537,-1.575c-1.925,-1.05 -3.238,-2.3 -3.938,-3.75l-0.375,-0l0,4.425l-6.825,-0l0,-15.375l6.825,-0l0,3.375c0,2.6 0.863,4.625 2.588,6.075c1.725,1.45 4.487,2.175 8.287,2.175c4,-0 6.9,-0.825 8.7,-2.475c1.8,-1.65 2.701,-3.85 2.701,-6.6c-0,-2.45 -0.675,-4.338 -2.025,-5.663c-1.35,-1.325 -3.625,-2.387 -6.826,-3.187l-3.825,-0.9c-2.45,-0.55 -4.65,-1.275 -6.6,-2.175c-1.95,-0.9 -3.6,-2 -4.95,-3.3c-1.35,-1.3 -2.387,-2.825 -3.112,-4.575c-0.725,-1.75 -1.088,-3.8 -1.088,-6.15c0,-2.15 0.4,-4.113 1.2,-5.888c0.8,-1.775 1.938,-3.3 3.413,-4.575c1.475,-1.275 3.262,-2.262 5.362,-2.962c2.1,-0.7 4.475,-1.05 7.125,-1.05c3,-0 5.4,0.5 7.2,1.5c1.8,1 3.05,2.175 3.75,3.525l0.375,-0l0,-4.125l6.825,-0l0,14.925l-6.825,-0l0,-3.375c0,-2.55 -0.862,-4.488 -2.587,-5.813c-1.725,-1.325 -4.438,-1.987 -8.138,-1.987c-3.45,-0 -6.012,0.762 -7.687,2.287c-1.675,1.525 -2.513,3.463 -2.513,5.813c0,2.5 0.763,4.425 2.288,5.775c1.525,1.35 4.037,2.45 7.537,3.3l3.525,0.75c4.85,1.15 8.6,2.962 11.25,5.437c2.65,2.475 3.975,5.863 3.975,10.163c0,2.3 -0.412,4.425 -1.237,6.375c-0.825,1.95 -2,3.637 -3.525,5.062c-1.525,1.425 -3.413,2.538 -5.663,3.338c-2.25,0.8 -4.8,1.2 -7.65,1.2Z" style="fill-rule:nonzero;"/>
      <path id="u" d="M104.687,75.134c-4.75,-0 -8.125,-1.213 -10.125,-3.638c-2,-2.425 -3,-6.062 -3,-10.912l0,-19.35l-5.1,-0.975l0,-3.3l13.5,-2.625l0,25.8c0,3.25 0.625,5.625 1.875,7.125c1.25,1.5 3.225,2.25 5.925,2.25c1,-0 1.988,-0.138 2.963,-0.413c0.975,-0.275 1.85,-0.7 2.625,-1.275c0.775,-0.575 1.4,-1.287 1.875,-2.137c0.475,-0.85 0.712,-1.875 0.712,-3.075l0,-21.375l-5.1,-0.975l0,-3.3l13.5,-2.625l0,33.9l5.1,0.975l0,3.3l-13.275,2.625l0,-6.975l-0.375,-0c-0.3,0.85 -0.762,1.7 -1.387,2.55c-0.625,0.85 -1.4,1.6 -2.325,2.25c-0.925,0.65 -2,1.175 -3.225,1.575c-1.225,0.4 -2.613,0.6 -4.163,0.6Z" style="fill-rule:nonzero;"/>
      <path id="r" d="M51.737,70.184l5.1,-0l0,-28.95l-5.1,-0.975l0,-3.3l13.275,-2.625l0,6.975l0.375,-0c0.35,-0.9 0.788,-1.763 1.313,-2.588c0.525,-0.825 1.175,-1.562 1.95,-2.212c0.775,-0.65 1.675,-1.175 2.7,-1.575c1.025,-0.4 2.187,-0.6 3.487,-0.6c2.3,-0 4.138,0.575 5.513,1.725c1.375,1.15 2.062,2.8 2.062,4.95c0,1.7 -0.437,3.037 -1.312,4.012c-0.875,0.975 -2.063,1.463 -3.563,1.463c-1.55,-0 -2.762,-0.413 -3.637,-1.238c-0.875,-0.825 -1.313,-1.862 -1.313,-3.112c0,-0.85 0.175,-1.563 0.525,-2.138c0.35,-0.575 0.775,-0.912 1.275,-1.012l0,-0.225c-0.15,-0.05 -0.325,-0.088 -0.525,-0.113c-0.2,-0.025 -0.5,-0.037 -0.9,-0.037c-0.95,-0 -1.887,0.25 -2.812,0.75c-0.925,0.5 -1.75,1.137 -2.475,1.912c-0.725,0.775 -1.313,1.65 -1.763,2.625c-0.45,0.975 -0.675,1.938 -0.675,2.888l0,23.4l6.6,-0l0,4.05l-20.1,-0l0,-4.05Z" style="fill-rule:nonzero;"/>
      <path id="T" d="M12.587,70.184l6.975,-0l0,-43.875l-11.7,-0l0,8.775l-6.825,-0l0,-13.2l45.975,-0l0,13.2l-6.825,-0l0,-8.775l-11.7,-0l0,43.875l6.975,-0l0,4.05l-22.875,-0l0,-4.05Z" style="fill-rule:nonzero;"/>
    </g>
  </g>
</svg>