<?xml version="1.0" encoding="UTF-8" standalone="no"?><!DOCTYPE svg PUBLIC "-//W3C//DTD SVG 1.1//EN" "http://www.w3.org/Graphics/SVG/1.1/DTD/svg11.dtd">
<svg width="100%" height="100%" viewBox="0 0 44 41" version="1.1"
  xmlns="http://www.w3.org/2000/svg"
  xmlns:xlink="http://www.w3.org/1999/xlink" xml:space="preserve"
  xmlns:serif="http://www.serif.com/" style="fill-rule:evenodd;clip-rule:evenodd;stroke-linejoin:round;stroke-miterlimit:2;">
  <path d="M42.621,39.22l-0,-3.04c-0,-0.41 -0,-1.02 0.75,-0.92c0.53,0 0.53,0.51 0.53,0.92l-0,3.55c-0,0.4 -0.32,0.81 -0.85,0.81l-41.58,0c-1.393,0 -1.393,0 -1.393,-1.22l-0,-6.79c-0,-0.51 -0,-1.12 0.643,-1.12c0.75,0 0.64,0.61 0.64,1.12l-0,6.69l7.5,0c-0,-0.91 -0.1,-1.93 -0,-2.84c0.11,-1.62 -0.21,-3.04 -1.5,-4.16c-0.21,-0.2 -0.32,-0.3 -0.43,-0.51c-0.32,-0.4 -0.75,-0.81 -0.1,-1.21c0.64,-0.51 0.96,0.4 1.39,0.71c0.54,0.3 1.07,0.81 1.29,1.42c0.75,1.62 1.39,2.23 3.1,1.82c0.97,-0.2 2.04,-0.2 3,0c1.5,0.31 2.25,-0.1 2.25,-0.91c0.11,-0.71 -0.42,-1.22 -1.28,-1.22l-3.86,0c-0.43,0 -0.86,-0.3 -1.07,-0.51c-1.07,-1.21 -2.04,-2.53 -3.11,-3.85c-0.43,-0.51 -0.85,-0.71 -1.5,-0.3c-1.18,0.6 -2.46,0.6 -3.64,0.1c-1.18,-0.51 -1.93,0 -2.04,1.21l-0,3.45c-0,0.21 0.11,0.51 -0,0.71c-0.1,0.21 -0.43,0.51 -0.64,0.51c-0.21,0 -0.54,-0.3 -0.643,-0.51c-0,-1.62 -0.107,-3.14 0.103,-4.66c0.11,-0.71 0.75,-1.42 1.29,-2.34c-0.96,-1.62 -0.43,-3.65 -0.43,-5.68c-0,-1.22 1.07,-2.13 2.36,-2.13c1.18,-0.1 2.25,-0.1 3.32,0c1.39,0 2.47,1.02 2.47,2.33l-0,3.86c-0.11,0.61 -0.33,1.22 -0.43,1.72c1.07,1.32 2.25,2.64 3.21,4.06c0.43,0.61 0.97,0.92 1.82,0.81l1.5,-0c-0.32,-2.33 -0.1,-4.46 2.57,-5.27c-0,-1.73 -0.1,-3.35 -0.1,-4.97c-0,-1.63 1.07,-2.54 2.68,-2.54c1.6,-0.1 3.1,-0 4.6,-0c0.65,-0 0.97,0.1 0.97,0.71l-0,6.7c2.68,0.81 3.11,2.84 2.68,5.37l2.46,-0c0.22,-0 0.43,-0.3 0.54,-0.4c0.96,-1.12 1.82,-2.23 2.68,-3.35c0.32,-0.4 0.64,-0.71 0.96,-1.01c-0.86,-2.03 -0.43,-4.06 -0.43,-6.09c-0,-1.02 1.18,-1.93 2.25,-1.93c1.18,-0.1 2.25,-0.1 3.43,-0c1.29,-0 2.36,0.81 2.47,2.13c0.1,1.42 -0,2.84 -0,4.26c-0.11,0.61 -0.43,1.12 -0.65,1.73c1.4,0.81 1.61,2.03 1.5,3.45c-0,1.01 0.11,5.78 -0,6.79c-0,0.31 -0.43,0.61 -0.64,0.82c-0.21,-0.21 -0.54,-0.51 -0.64,-0.71c-0,-1.22 0.1,-6.29 -0,-7.51c-0,-0.51 -0.22,-1.02 -0.43,-1.42c-0.32,-0.41 -0.75,-0.51 -1.29,-0.2c-1.28,0.71 -2.68,0.6 -3.96,-0c-0.65,-0.41 -1.07,-0.21 -1.4,0.3c-1.07,1.22 -2.03,2.54 -3.1,3.75c-0.32,0.51 -0.65,0.61 -1.18,0.61l-3.64,-0c-0.97,-0 -1.5,0.41 -1.5,1.12c-0,0.91 0.64,1.22 2.14,1.11c1.18,-0.2 2.36,-0.2 3.53,-0c0.97,0.11 1.61,-0.2 2.04,-0.81c0.75,-1.01 1.61,-1.93 2.36,-2.94c0.32,-0.41 0.64,-0.71 1.07,-0.3c0.43,0.3 0.21,0.71 -0,1.01c-0.11,0.1 -0.11,0.1 -0.21,0.2c-2.47,2.03 -1.83,4.87 -1.83,7.51l7.4,-0Zm-32.47,0l23.79,0l-0,-3.35l-23.79,0l-0,3.35Zm17.36,-8.12c-0,-0.6 -0.11,-1.01 -0,-1.52c0.21,-1.42 -0.64,-2.13 -1.93,-2.63c-0.21,-0.11 -0.64,0 -0.86,0.2c-1.71,1.32 -3.86,1.32 -5.46,0c-0.22,-0.1 -0.43,-0.31 -0.65,-0.31c-0.64,0 -2.03,1.12 -2.03,1.73c-0.11,0.81 -0,1.62 -0,2.43c2.25,0.41 2.78,1.22 2.57,3.55l5.79,0c-0.65,-2.23 0.75,-3.34 2.57,-3.45Zm-8.36,-8.72c-0,0.71 -0.11,1.32 -0,2.03c-0,1.32 1.07,2.33 2.46,2.54c1.29,0.1 2.68,-0.72 2.9,-1.93c0.21,-0.81 0.21,-1.73 0.32,-2.64l-5.68,0Zm-11.36,-0.71c0.32,-1.42 -0.21,-2.13 -1.28,-2.13c-0.97,-0.1 -1.93,-0.1 -2.9,0c-0.75,0 -1.28,0.4 -1.28,1.11c-0,0.92 -0.11,1.83 -0,2.74c-0,0.21 0.21,0.51 0.43,0.51c0.85,0.31 1.82,-0.1 2.14,-0.91c0.11,-0.41 0.21,-0.91 0.32,-1.32c0.11,-0.71 0.43,-0.91 1.18,-0.51c0.43,0.21 0.86,0.31 1.39,0.51Zm28.4,-0.1c0.32,0 0.53,-0.1 0.75,-0.1c0.53,-0.21 1.28,-0.61 1.5,-0.41c0.32,0.31 0.43,0.91 0.53,1.42c0.33,1.12 0.97,1.62 2.04,1.52c0.54,0 0.75,-0.2 0.75,-0.71l-0,-2.53c-0,-0.82 -0.54,-1.22 -1.39,-1.32l-2.47,0c-1.39,0 -1.93,0.61 -1.71,2.13Zm-29.79,1.01c-0.54,1.93 -1.82,2.84 -3.86,2.54c0.43,1.32 1.82,2.03 3,1.72c1.93,-0.4 2.79,-2.03 2.25,-4.05c-0.43,-0.11 -0.86,-0.11 -1.39,-0.21Zm35.04,2.54c-2.04,0.3 -3.32,-0.61 -3.86,-2.54c-0.53,0.1 -0.96,0.21 -1.39,0.21c-0.32,2.33 0.43,3.65 2.14,4.05c1.39,0.31 2.68,-0.4 3.11,-1.72Zm-22.29,-4.06l5.47,0l-0,-1.62l-4.08,0c-1.07,0.1 -1.5,0.61 -1.39,1.62Z" style="fill:#fff;"/>
  <path d="M32.471,17.76c-0,-0.31 0.11,-0.51 0.11,-0.61c-0.11,-0.91 -0,-1.42 1.18,-1.62c0.75,0 1.18,-0.71 1.18,-1.41l-0,-5.97c-0,-1.01 -0.75,-1.72 -1.72,-1.72l-10.93,-0l-0,4.45c-0.1,1.92 -1.39,3.34 -3.42,3.64c-0.22,0.1 -0.54,0.1 -0.75,0.1c0.21,0.81 0.64,1.01 1.5,1.01c1.17,0.1 2.25,0.1 3.42,0.1c0.43,-0 0.43,1.32 -0.1,1.22c-0.75,-0.2 -1.61,-0.1 -2.36,-0.1c-2.04,0.3 -3.32,-0.41 -4.07,-2.23c-1.82,0 -3.75,0.1 -5.57,-0.1c-2.36,-0.2 -4.29,0.4 -5.68,2.33c-0.11,0.1 -0.22,0.3 -0.43,0.3c-0.21,0.2 -0.54,0.3 -0.75,0.3c-0.21,-0.1 -0.43,-0.5 -0.43,-0.7c-0.11,-0.71 -0,-1.42 -0,-2.13c-1.71,-0.5 -2.89,-1.41 -3.21,-3.03c-0.11,-0.61 -0.11,-1.22 -0.11,-1.93l-0,-5.36c-0,-2.32 1.71,-3.84 4.18,-3.84l13.5,0c2.68,0 4.28,1.52 4.28,3.94l-0,0.81l10.5,0c2.25,0 3.43,1.22 3.54,3.34l-0,5.16c-0,1.42 -0.64,2.43 -2.14,3.04c-0.11,0.1 -0.32,0.4 -0.32,0.7c-0.11,0.51 -0,1.12 -0.11,1.62c-0,0.31 -0.22,0.61 -0.32,0.71c-0.22,0 -0.65,-0.1 -0.86,-0.2c-0.75,-0.71 -1.5,-1.52 -2.36,-2.23c-0.32,-0.2 -0.64,-0.4 -1.07,-0.4c-0.86,-0.1 -5.78,0 -6.64,-0.1c-0.32,0 -0.43,-1.12 -0.11,-1.12c1.18,-0.1 6.32,-0.1 7.5,0c0.32,0 0.64,0.21 0.86,0.41c0.53,0.5 1.07,1.01 1.71,1.62Zm-27.53,-2.63c0.1,0.1 0.1,0.1 0.21,0.1c0.43,-0.31 0.75,-0.71 1.07,-1.01c0.54,-0.71 1.18,-0.91 2.15,-0.91c3.32,0.1 6.53,0.1 9.85,0.1c1.61,-0.1 2.68,-1.01 2.68,-2.53c0.11,-2.23 0.11,-4.45 -0,-6.78c-0,-1.41 -0.96,-2.43 -2.46,-2.43l-14.25,-0c-1.4,-0 -2.47,1.02 -2.47,2.33c-0.1,2.33 -0.1,4.65 -0,6.98c-0,1.31 0.97,2.23 2.25,2.33c0.75,0.1 0.97,0.4 0.97,1.01l-0,0.81Z" style="fill:#fff;"/>
  <path d="M5.631,3.7l11.27,0c0.53,0 1.07,0 1.07,0.61c-0,0.61 -0.54,0.61 -1.07,0.61l-8.59,-0c-0.86,-0 -1.82,0.1 -2.68,-0c-0.32,-0 -0.54,-0.41 -0.86,-0.61c0.32,-0.2 0.54,-0.61 0.86,-0.61Z" style="fill:#fff;"/>
  <path d="M5.841,7.06l11.06,-0c0.53,-0 1.07,-0 1.07,0.6c-0,0.6 -0.54,0.6 -1.07,0.6l-11.06,-0c-0.53,-0 -1.07,-0 -0.96,-0.6c-0,-0.6 0.43,-0.6 0.96,-0.6Z" style="fill:#fff;"/>
  <path d="M8.431,11.29l-2.8,-0c-0.43,-0 -0.75,-0.09 -0.86,-0.56c-0,-0.37 0.43,-0.55 0.86,-0.55c1.83,0 3.77,0 5.6,0.09c0.21,0 0.54,0.28 0.86,0.46c-0.32,0.19 -0.65,0.56 -0.97,0.56c-0.86,0.09 -1.83,-0 -2.69,-0Z" style="fill:#fff;"/>
</svg>
