<?xml version="1.0" encoding="UTF-8" standalone="no"?><!DOCTYPE svg PUBLIC "-//W3C//DTD SVG 1.1//EN" "http://www.w3.org/Graphics/SVG/1.1/DTD/svg11.dtd">
<svg width="100%" height="100%" viewBox="0 0 480 304" version="1.1"
  xmlns="http://www.w3.org/2000/svg"
  xmlns:xlink="http://www.w3.org/1999/xlink" xml:space="preserve"
  xmlns:serif="http://www.serif.com/" style="fill-rule:evenodd;clip-rule:evenodd;stroke-linejoin:round;stroke-miterlimit:2;">
  <path d="M345.59,197.73l28.801,14.685c0.855,-1.154 2.443,-1.556 3.758,-0.876c1.478,0.749 2.067,2.546 1.308,4.024c-0.749,1.478 -2.556,2.057 -4.024,1.308c-1.327,-0.672 -1.929,-2.197 -1.497,-3.564l-28.865,-14.71l0.519,-0.867Z" style="fill-opacity:0.5;"/>
  <path d="M344.996,198.722c-6.383,10.635 -14.471,20.381 -24.131,28.823l5.183,7.139l-17.644,-5.681l-0.549,-19.371l5.172,7.129c32.022,-28.617 44.124,-73.439 30.854,-114.287l12.62,-4.104c10.959,33.728 6.501,69.849 -10.911,99.36l-0.519,0.867l-0.075,0.125Z" style="fill-opacity:0.6;"/>
  <path d="M360.959,22.259l-0.072,-0.001c-0.718,0 -1.438,0.257 -2.009,0.776c-1.1,0.992 -1.287,2.617 -0.469,3.796l-29.924,27.164l0.687,0.731l29.907,-27.157c1.096,0.924 2.724,0.892 3.823,-0.1c1.228,-1.109 1.318,-3.006 0.2,-4.234c-0.572,-0.628 -1.353,-0.956 -2.143,-0.975Z" style="fill-opacity:0.5;"/>
  <path d="M329.225,54.783c9.097,9.915 16.618,21.433 22.104,34.241l8.378,-2.725l-10.834,15.017l-18.602,-5.452l8.387,-2.726c-17.333,-39.26 -56.214,-64.592 -99.15,-64.592l0,-13.27c34.361,0.007 66.383,14.463 88.977,38.718l0.687,0.731l0.053,0.058Z" style="fill-opacity:0.7;"/>
  <path d="M149.442,54.865l-40.578,-21.786c-0.877,1.137 -2.474,1.507 -3.782,0.799c-1.458,-0.779 -2.007,-2.596 -1.218,-4.054c0.778,-1.458 2.596,-2.007 4.053,-1.218c1.308,0.698 1.884,2.232 1.421,3.592l40.793,21.906l-0.689,0.761Z" style="fill-opacity:0.5;"/>
  <path d="M150.131,54.104c20.077,-22.095 48.031,-36.491 78.953,-39.287l0,-8.817l10.944,14.957l-10.944,15.996l0,-8.816c-42.695,4.343 -78.811,33.509 -92.071,74.347l-12.61,-4.094c5.333,-16.426 13.956,-31.162 25.039,-43.525l0.689,-0.761Z" style="fill-opacity:0.8;"/>
  <path d="M127.701,183.599l-22.465,10.711c-0.829,-1.179 -2.404,-1.619 -3.739,-0.983c-1.498,0.709 -2.127,2.496 -1.418,3.994c0.719,1.487 2.507,2.126 3.994,1.417c1.344,-0.644 1.988,-2.149 1.595,-3.526l22.433,-10.7l-0.4,-0.913Z" style="fill-opacity:0.5;"/>
  <path d="M127.701,183.599c-9.832,-23.082 -12.497,-49.141 -6.683,-74.655l-8.388,-2.726l17.604,-5.781l11.832,15.347l-8.377,-2.726c-9.067,41.967 7.478,85.331 42.186,110.573l-7.798,10.734c-17.917,-13.03 -31.515,-30.356 -39.976,-49.853l-0.4,-0.913Z" style="fill-opacity:0.9;"/>
  <path d="M239.718,257.586l0,6.365c-1.419,0.238 -2.496,1.47 -2.496,2.954c-0,1.655 1.338,2.996 2.995,2.996c1.658,-0 2.996,-1.341 2.996,-2.996c-0,-1.484 -1.077,-2.716 -2.496,-2.954l-0,-6.356l-0.999,-0.009Z" style="fill-opacity:0.5;"/>
  <path d="M239.718,257.586c-21.333,-0.078 -42.699,-5.783 -61.796,-17.2l-5.183,7.13l-0.059,-18.533l18.252,-6.5l-5.182,7.129c37.114,21.627 83.493,19.279 118.221,-5.991l7.798,10.734c-21.108,15.353 -46.034,23.159 -71.052,23.24l-0.999,-0.009Z"/>
  <path d="M140.049,135.185c-0,-51.383 44.233,-93.04 98.79,-93.04c54.558,0 98.791,41.657 98.791,93.04c0,51.382 -44.233,93.039 -98.791,93.039c-54.557,-0 -98.79,-41.657 -98.79,-93.039Zm29.895,-0c-0,34.877 30.843,63.144 68.895,63.144c38.053,0 68.896,-28.267 68.896,-63.144c0,-34.878 -30.843,-63.145 -68.896,-63.145c-38.052,0 -68.895,28.267 -68.895,63.145Z" style="fill-opacity:0.15;"/>

  <text x="240" y="100" height="32" width="120" dominant-baseline="hanging" text-anchor="middle" style="font-size: 28px; font-weight: 700;">TruSyft</text>
  <text x="240" y="132" height="48" width="120" dominant-baseline="hanging" text-anchor="middle" style="font-size: 13px; font-weight: 600;">
    <tspan x="240">Drive Revenue</tspan>
    <tspan x="240" dy="1.1em">Mitigate Risk</tspan>
    <tspan x="240" dy="1.1em">Boost Efficiency</tspan>
  </text>

  <text x="200" y="275" height="16" width="200" dominant-baseline="hanging" style="font-size: 12px; font-weight: 600;">Identify Value-add Consulting</text>
  <path d="M159.52,287.742l-0,2.862l3.442,-0c0.64,-0 0.805,0.226 0.805,0.753l-0,4.971c-0,0.451 -0.165,0.602 -0.641,0.602c-2.801,0.075 -5.684,0.075 -8.485,-0c-0.485,-0 -0.641,-0.151 -0.641,-0.602l-0,-5.046c-0,-0.452 0.156,-0.678 0.723,-0.678l3.524,-0c-0,-0.15 0.074,-0.302 0.074,-0.376l-0,-2.712c-0,-0.678 0.164,-0.903 0.879,-0.903l9.528,-0c0.238,-0 0.485,-0.075 0.723,-0.226c0.879,-0.904 1.922,-1.808 2.883,-2.787c0.074,-0.074 0.238,-0.3 0.238,-0.527l0,-2.635c-0.082,-0 -0.164,-0.076 -0.238,-0.076c-0.723,0 -0.887,-0.15 -1.043,-0.753l0,-0.15c-0.082,-0.904 -0.082,-0.904 -1.043,-1.281c-0.074,0 -0.238,0 -0.321,0.076c-0.32,0.226 -0.64,0.377 -0.878,0.677c-0.321,0.226 -0.559,0.226 -0.797,0c-0.641,-0.527 -1.208,-1.129 -1.766,-1.656c-0.239,-0.226 -0.239,-0.452 -0.074,-0.678c0.238,-0.301 0.476,-0.602 0.714,-0.904c0.083,-0.075 0.083,-0.301 0.083,-0.451c-0,-0.076 -0.165,-0.151 -0.165,-0.226c-0.074,-0.528 -0.476,-0.602 -0.953,-0.602c-0.164,-0 -0.402,-0.076 -0.566,-0.076c-0.321,-0.076 -0.559,-0.226 -0.559,-0.527l0,-2.259c0,-0.302 0.238,-0.528 0.559,-0.528c0.32,-0.075 0.722,-0.15 1.043,-0.15c0.238,-0.076 0.32,-0.151 0.476,-0.377c0.321,-0.527 0.247,-0.978 -0.238,-1.43c-0.641,-0.679 -0.641,-0.753 0.082,-1.431c0.477,-0.377 0.879,-0.753 1.199,-1.13c0.321,-0.301 0.559,-0.301 0.879,-0.075c0.247,0.226 0.567,0.452 0.888,0.602c0.156,0.076 0.32,0.151 0.394,0.151c0.246,-0.075 0.567,-0.226 0.805,-0.301c0.074,-0.076 0.156,-0.226 0.156,-0.302c0.082,-0.301 0.082,-0.677 0.164,-1.054c0.074,-0.301 0.238,-0.527 0.641,-0.527l2.316,-0c0.403,-0 0.641,0.226 0.641,0.602c0.082,0.226 0.082,0.452 0.082,0.678c0.082,0.151 0,0.452 0.164,0.527c0.239,0.151 0.633,0.302 0.953,0.377c0.165,0 0.403,-0.226 0.567,-0.301c0.238,-0.151 0.394,-0.302 0.641,-0.452c0.238,-0.226 0.476,-0.151 0.714,0.075c0.567,0.527 1.126,1.054 1.684,1.582c0.239,0.226 0.321,0.452 0.082,0.753c-0.246,0.226 -0.484,0.527 -0.64,0.828c-0.082,0.076 -0.165,0.226 -0.165,0.301c0.083,0.301 0.247,0.527 0.321,0.828c0.082,0.076 0.238,0.076 0.32,0.151c0.321,-0 0.641,0.075 1.043,0.151c0.477,-0 0.641,0.226 0.641,0.678l0,1.958c0,0.452 -0.238,0.678 -0.723,0.752c-0.082,0 -0.238,0.076 -0.32,0.076c-0.797,-0.15 -1.035,0.376 -1.282,0.979c0,0.075 0.083,0.226 0.165,0.376c0.156,0.302 0.394,0.528 0.64,0.829c0.239,0.226 0.157,0.527 -0.082,0.678c-0.558,0.602 -1.117,1.129 -1.684,1.657c-0.238,0.15 -0.476,0.225 -0.714,-0c-0.321,-0.226 -0.641,-0.378 -0.961,-0.603c-0.082,-0.076 -0.247,-0.151 -0.321,-0.076c-0.32,0.076 -0.566,0.151 -0.879,0.301c-0.082,0 -0.082,0.152 -0.164,0.226c0,0.302 -0.082,0.603 -0.082,0.904c-0.074,0.377 -0.238,0.527 -0.641,0.527l-0.558,0c-0,0.602 0.082,1.205 -0,1.733c-0.156,0.978 0.164,1.657 0.961,2.259c0.723,0.602 1.363,1.279 2.078,1.958c0.246,0.226 0.567,0.301 0.887,0.301l9.364,-0c0.797,-0 0.961,0.151 0.961,0.903l0,3.088l3.442,-0c0.641,-0 0.797,0.226 0.797,0.753c0.082,1.657 0.082,3.238 0,4.895c0,0.527 -0.156,0.678 -0.797,0.678l-8.165,-0c-0.64,-0 -0.879,-0.151 -0.879,-0.754l0,-4.819c0,-0.527 0.239,-0.753 0.879,-0.753l3.442,-0l0,-2.862l-0.32,-0c-3.04,-0 -6.169,-0.075 -9.209,-0c-0.156,-0 -0.402,0.076 -0.558,0.226c-0.961,0.829 -1.758,1.657 -2.645,2.486c-0.156,0.075 -0.238,0.225 -0.238,0.376l-0,2.485c0.402,0.151 0.879,0.301 1.281,0.452c1.52,0.828 2.325,2.033 2.16,3.69c-0.156,1.581 -1.043,2.711 -2.562,3.238c-1.84,0.678 -3.524,0.226 -4.797,-1.355c-1.126,-1.356 -1.044,-3.238 0.156,-4.519c0.558,-0.753 1.363,-1.205 2.242,-1.431c0.238,0 0.32,-0.15 0.32,-0.376l0,-2.109c0,-0.15 -0.164,-0.376 -0.238,-0.451c-0.887,-0.829 -1.766,-1.733 -2.727,-2.561c-0.074,-0.075 -0.238,-0.151 -0.394,-0.151l-9.693,-0Zm9.126,-9.865c0.32,-0.301 0.641,-0.451 0.887,-0.677c0.321,-0.226 0.559,-0.302 0.961,-0.151c0.321,0.226 0.633,0.377 0.953,0.451c0.641,0.076 0.887,0.452 0.887,1.055c0.074,0.753 0.074,0.753 0.879,0.753l0.238,0c0.321,0 0.403,-0.075 0.485,-0.301c-0,-0.302 0.074,-0.603 0.074,-0.904c0.082,-0.226 0.246,-0.377 0.485,-0.527c0.476,-0.15 0.961,-0.301 1.437,-0.527c0.238,-0.151 0.485,-0.151 0.723,0.075c0.32,0.226 0.641,0.452 0.961,0.678c0.32,-0.302 0.641,-0.602 1.043,-0.904c-0.246,-0.301 -0.484,-0.527 -0.723,-0.828c-0.238,-0.226 -0.238,-0.527 -0.082,-0.828c0.164,-0.452 0.321,-0.828 0.485,-1.28c0.156,-0.302 0.32,-0.453 0.641,-0.453c0.394,-0.075 0.796,-0.15 1.199,-0.15l-0,-1.356c-0.403,0 -0.805,-0.075 -1.126,-0.15c-0.394,0 -0.558,-0.151 -0.714,-0.527c-0.164,-0.377 -0.321,-0.753 -0.485,-1.13c-0.156,-0.377 -0.156,-0.603 0.082,-0.903c0.239,-0.226 0.477,-0.528 0.641,-0.753c-0.32,-0.378 -0.641,-0.678 -0.961,-0.98c-0.32,0.226 -0.559,0.377 -0.879,0.602c-0.246,0.226 -0.567,0.302 -0.887,0.152c-0.477,-0.226 -0.879,-0.377 -1.355,-0.528c-0.239,-0.075 -0.403,-0.226 -0.485,-0.527c-0,-0.376 -0.074,-0.828 -0.156,-1.205l-1.199,-0c-0.083,-0 -0.247,0.151 -0.247,0.226c-0.074,0.301 -0.074,0.603 -0.156,0.979c0,0.301 -0.164,0.452 -0.485,0.527c-0.394,0.151 -0.878,0.302 -1.273,0.528c-0.402,0.15 -0.64,0.15 -0.961,-0.152c-0.246,-0.225 -0.567,-0.376 -0.805,-0.602c-0.32,0.377 -0.723,0.678 -1.043,0.98c0.246,0.225 0.485,0.527 0.723,0.753c0.238,0.3 0.238,0.526 0.082,0.828c-0.164,0.376 -0.403,0.753 -0.485,1.129c-0.156,0.452 -0.394,0.603 -0.796,0.678c-0.403,-0 -0.723,0.075 -1.044,0.075l0,1.356c0.403,-0 0.805,0.075 1.2,0.15c0.246,0 0.484,0.151 0.566,0.453c0.156,0.452 0.395,0.903 0.559,1.28c0.156,0.301 0.156,0.527 -0.082,0.753c-0.238,0.301 -0.477,0.602 -0.723,0.828c0.402,0.377 0.641,0.677 0.961,1.054Zm15.057,17.999l7.122,-0c0.32,-0 0.32,-0.151 0.32,-0.377l-0,-3.69l-7.442,-0l-0,4.067Zm-21.062,-4.067l-7.442,-0l0,4.067l7.442,-0l0,-4.067Zm10.49,2.56c-1.602,0 -2.883,1.205 -2.883,2.787c-0,1.506 1.281,2.71 2.883,2.786c1.602,-0 2.965,-1.28 2.965,-2.786c0,-1.506 -1.281,-2.711 -2.965,-2.787Zm-2.719,-7.379c0.961,0.903 1.84,1.731 2.719,2.56c0.879,-0.829 1.84,-1.732 2.719,-2.56c-0.879,-0.829 -1.84,-1.657 -2.719,-2.561c-0.879,0.904 -1.84,1.732 -2.719,2.561Z"/>
  <path d="M168.884,272.628c0,-2.191 1.922,-4.004 4.247,-4.004c2.325,-0.075 4.247,1.813 4.247,4.004c0.082,2.19 -1.84,4.003 -4.247,4.003c-2.325,0 -4.247,-1.813 -4.247,-4.003Zm4.247,-3.324c-1.84,0 -3.524,1.586 -3.524,3.324c0,1.737 1.758,3.323 3.606,3.323c1.766,0 3.524,-1.661 3.442,-3.323c-0,-1.813 -1.602,-3.324 -3.524,-3.324Z"/>
  <rect x="184.853" y="292.896" width="5.126" height="1.873"/>
  <path d="M161.393,294.768l-5.027,0l-0,-1.619c-0,-0.078 0.156,-0.155 0.238,-0.155l4.789,0l-0,1.774Z"/>
  <path d="M173.131,295.557c0.961,0 1.766,0.775 1.766,1.626c-0.082,0.929 -0.805,1.627 -1.766,1.627c-0.879,-0 -1.684,-0.775 -1.684,-1.627c0,-0.851 0.805,-1.626 1.684,-1.626Z"/>

  <text x="96" y="190" height="32" width="96" dominant-baseline="hanging" text-anchor="end" style="font-size: 12px; font-weight: 600;">
    <tspan x="96">Planning</tspan><tspan x="96" dy="1.1em">&amp; Analytics</tspan>
  </text>
  <path d="M84.425,222l-32.16,0c-1.618,0 -2.557,0.879 -2.557,2.387l0,6.452l1.528,4.374l0,-10.506c0,-1.119 0.17,-1.279 1.368,-1.279l31.481,0c1.199,0 1.368,0.16 1.368,1.199l0,18.387l-2.387,-0l0,-9.708c0,-0.959 -0.169,-1.119 -1.188,-1.119l-3.745,0c-1.019,0 -1.189,0.16 -1.189,1.119l0,9.708l-1.618,-0l0,-4.135c0,-0.559 -0.26,-0.879 -0.859,-0.879l-4.424,0c-0.679,0 -0.929,0.4 -0.929,0.879l-0,4.135l-1.538,-0l-0,-6.842c-0,-0.879 -0.17,-1.038 -1.189,-1.118l-3.825,-0c-1.029,0.08 -1.198,0.239 -1.198,1.198l-0,6.762l-1.529,-0l0,-3.106c-0.089,-1.029 -0.259,-1.189 -1.278,-1.189l-3.486,0c-1.368,0 -1.448,0.08 -1.448,1.348l0,1.758l0.939,2.787l30.891,-0l0,2.067c-0.089,0.48 -0.339,0.709 -0.769,0.709l-29.443,0l-0.429,1.518l8.939,0c-0.17,0.875 -0.34,1.671 -0.51,2.467c-0.09,0.716 -0.17,1.354 -1.198,1.194c-0.17,-0 -0.59,0.478 -0.59,0.717c-0.089,0.159 0.34,0.477 0.59,0.636c0.09,0.08 0.349,0.08 0.519,0.08l11.566,-0c0.169,-0 0.429,-0 0.689,-0.08c0.419,-0.079 0.759,-0.636 0.419,-1.035c-0.25,-0.158 -0.589,-0.238 -0.939,-0.318c-0.249,-0.159 -0.679,-0.159 -0.679,-0.318c-0.249,-1.114 -0.419,-2.229 -0.679,-3.343l11.406,0c1.698,0 2.636,-0.879 2.636,-2.467l0,-21.972c0,-1.588 -0.848,-2.467 -2.556,-2.467Zm-26.208,21.014l-3.066,-0l0,-2.787l3.066,0l0,2.787Zm7.741,-0l-2.977,-0l0,-6.442l2.977,-0l-0,6.442Zm7.75,-0l-2.976,-0l-0,-3.506l2.976,0l0,3.506Zm7.83,-0l-3.066,-0l0,-9.309l3.066,0l0,9.309Zm-16.849,9.474c0.17,-1.195 0.42,-2.309 0.68,-3.503l5.952,0c0.26,1.115 0.509,2.308 0.679,3.503l-7.311,-0Z"/>
  <path d="M81.498,225.645c0,-0.569 -0.249,-0.888 -0.928,-0.888c-0.939,0.079 -1.868,-0 -2.887,0.079c-0.429,0 -0.769,0.24 -0.769,0.65c0,0.479 0.26,0.719 0.769,0.799l1.019,-0c-1.788,1.528 -3.406,2.976 -5.014,4.344c-0.17,0.08 -0.509,0.16 -0.769,0.16c-0.759,-0.16 -1.528,-0.08 -2.207,0.41c-0.17,0.079 -0.43,0.159 -0.599,0.079c-1.019,-0.329 -1.948,-0.729 -2.887,-1.128c-0.17,-0.08 -0.419,-0.24 -0.419,-0.4c-0.34,-1.288 -1.189,-2.097 -2.387,-2.017c-1.269,-0 -2.038,0.809 -2.287,2.177c-0.09,0.16 -0.26,0.4 -0.43,0.559c-0.929,0.48 -1.947,0.889 -2.886,1.289c-0.26,0.16 -0.679,0.08 -0.849,-0c-1.019,-0.48 -2.128,-0.4 -2.887,0.24c-0.769,0.729 -0.938,1.767 -0.429,2.656c0.509,0.889 1.528,1.368 2.547,1.129c1.018,-0.16 1.698,-0.969 1.867,-2.018c0,-0.239 0.17,-0.479 0.43,-0.559c0.939,-0.559 1.957,-1.049 3.056,-1.448c0.17,-0.08 0.509,-0.08 0.679,-0c0.939,0.479 1.788,0.479 2.637,-0.08c0.26,-0.08 0.599,-0.16 0.769,-0.08c0.929,0.32 1.868,0.639 2.796,1.049c0.17,0.08 0.43,0.399 0.51,0.639c0.17,1.208 1.368,2.007 2.636,1.848c1.279,-0.24 2.128,-1.369 1.958,-2.657c-0.09,-0.24 0.08,-0.559 0.25,-0.799c1.538,-1.288 3.066,-2.577 4.594,-3.945c0.17,-0.16 0.34,-0.24 0.589,-0.48l0,1.129c0,0.479 0.26,0.799 0.769,0.799c0.51,0 0.759,-0.32 0.759,-0.719c0.09,-0.969 0.09,-1.858 0,-2.817Zm-24.809,8.69c-0.419,-0.16 -0.759,-0.24 -0.759,-0.73c0,-0.479 0.34,-0.639 0.849,-0.639c1.099,0 0.51,1.448 -0.09,1.369Zm7.821,-3.706c-0.51,0 -0.849,-0.239 -0.769,-0.719c-0,-0.409 0.259,-0.649 0.769,-0.649c0.938,-0 0.938,1.368 -0,1.368Zm7.65,2.897c-0.26,-0 -0.679,-0.4 -0.679,-0.64c-0,-0.409 0.17,-0.489 0.339,-0.569c0.08,-0.08 0.59,-0.479 0.849,-0.08c0.34,0.49 0.759,1.289 -0.509,1.289Z"/>
  <path d="M53.933,246.969c-0.25,-0.719 -0.51,-1.438 -0.759,-2.158c-0.17,-0.479 -0.34,-0.958 -0.52,-1.438c-0.249,-0.639 -0.419,-1.278 -0.679,-1.917c-0.509,-1.359 -1.018,-2.637 -1.448,-3.995c-0.509,-1.279 -0.939,-2.557 -1.448,-3.836c-0.769,-2.157 -1.538,-4.234 -2.297,-6.312c-0.35,-0.958 -0.939,-1.358 -1.878,-1.358c-0.769,0 -1.448,0.479 -1.708,1.199c0,0.079 -0.09,0.079 -0.09,0.159c0.18,0.719 -0.249,1.279 -0.759,1.838c-0.429,0.479 -0.429,1.119 -0.17,1.758c0.42,1.198 0.849,2.397 1.279,3.595c0.08,0.32 0.25,0.56 0.679,0.48c0.43,-0.16 0.34,-0.48 0.26,-0.799c-0.43,-1.119 -0.859,-2.237 -1.289,-3.436c-0.169,-0.559 -0.169,-1.039 0.43,-1.518c0.09,0.24 0.17,0.479 0.259,0.639c1.449,3.995 2.897,7.99 4.345,12.065c0.769,1.918 1.448,3.915 2.127,5.833c0.18,0.399 0.52,0.799 0.769,1.118c0.43,0.48 0.939,0.879 1.369,1.279c0.249,0.239 0.339,0.479 0.509,0.719c0.17,0.08 0.43,0.24 0.599,0.16c0.08,-0 0.25,-0.24 0.25,-0.4c0.09,-0.559 0.17,-1.198 0.17,-1.758c0.09,-0.399 0.09,-0.799 0.09,-1.198l-0,-0.16c-0,-0.24 -0,-0.399 -0.09,-0.559Zm-9.289,-20.055c0.51,-0.16 0.849,-0 1.109,0.479c-0.509,0.16 -1.109,0.4 -1.618,0.56c-0.17,-0.56 0,-0.879 0.509,-1.039Zm-0.169,1.917c0.509,-0.159 1.108,-0.319 1.707,-0.559c0.68,2.078 1.449,4.155 2.218,6.232c-0.6,0.16 -1.109,0.32 -1.708,0.56c-0.769,-2.078 -1.538,-4.155 -2.217,-6.233Zm3.925,10.867c-0.43,-1.279 -0.939,-2.477 -1.369,-3.755c0.6,-0.16 1.109,-0.4 1.708,-0.56c0,0.16 0.08,0.24 0.08,0.32c0.599,1.518 1.109,3.036 1.708,4.554c0.509,1.518 1.109,3.036 1.618,4.554c0.26,0.799 0.599,1.519 0.859,2.238c-0.35,0.08 -0.599,0.159 -0.859,0.239c-0.25,0.08 -0.599,0.16 -0.849,0.32c-0.26,-0.719 -0.509,-1.438 -0.769,-2.157c-0.769,-1.918 -1.448,-3.836 -2.127,-5.753Zm4.434,9.588c-0.18,-0.16 -0.349,-0.32 -0.519,-0.48c-0.17,-0.159 -0.25,-0.239 -0.42,-0.399c0.42,-0.16 0.759,-0.32 1.189,-0.4c-0.08,0.32 -0.08,0.56 -0.17,0.879c0,0.16 -0.08,0.24 -0.08,0.4Z"/>

  <text x="100" y="25" height="32" width="100" dominant-baseline="hanging" text-anchor="end" style="font-size: 12px; font-weight: 600;">
    <tspan x="100">Visual Dynamic</tspan><tspan x="100" dy="1.1em">Org Charts</tspan>
  </text>
  <path d="M77.237,90.814l-0,-2.73c-0,-0.368 -0,-0.916 0.673,-0.827c0.476,0 0.476,0.459 0.476,0.827l0,3.188c0,0.36 -0.287,0.728 -0.763,0.728l-37.347,-0c-1.252,-0 -1.252,-0 -1.252,-1.096l0,-6.099c0,-0.458 0,-1.006 0.578,-1.006c0.674,0 0.575,0.548 0.575,1.006l-0,6.009l6.736,0c0,-0.817 -0.089,-1.733 0,-2.551c0.099,-1.455 -0.188,-2.73 -1.347,-3.736c-0.189,-0.18 -0.287,-0.27 -0.386,-0.458c-0.288,-0.359 -0.674,-0.728 -0.09,-1.087c0.575,-0.458 0.862,0.359 1.249,0.638c0.485,0.269 0.961,0.727 1.158,1.275c0.674,1.455 1.249,2.003 2.785,1.635c0.871,-0.18 1.832,-0.18 2.694,-0c1.348,0.278 2.021,-0.09 2.021,-0.817c0.099,-0.638 -0.377,-1.096 -1.149,-1.096l-3.468,-0c-0.386,-0 -0.772,-0.27 -0.961,-0.458c-0.961,-1.087 -1.832,-2.273 -2.793,-3.458c-0.386,-0.458 -0.763,-0.638 -1.347,-0.27c-1.06,0.539 -2.21,0.539 -3.27,0.09c-1.06,-0.458 -1.733,-0 -1.832,1.087l-0,3.099c-0,0.188 0.099,0.458 -0,0.637c-0.09,0.189 -0.386,0.458 -0.575,0.458c-0.189,0 -0.485,-0.269 -0.578,-0.458c0,-1.455 -0.096,-2.82 0.093,-4.185c0.099,-0.638 0.674,-1.276 1.159,-2.102c-0.863,-1.455 -0.387,-3.279 -0.387,-5.102c0,-1.096 0.962,-1.913 2.12,-1.913c1.06,-0.09 2.021,-0.09 2.982,-0c1.249,-0 2.219,0.916 2.219,2.093l-0,3.467c-0.099,0.548 -0.297,1.096 -0.386,1.545c0.961,1.185 2.021,2.371 2.883,3.646c0.386,0.548 0.871,0.827 1.635,0.728l1.347,-0c-0.288,-2.093 -0.09,-4.006 2.308,-4.734c0,-1.553 -0.09,-3.009 -0.09,-4.464c0,-1.464 0.961,-2.281 2.408,-2.281c1.437,-0.09 2.784,-0 4.131,-0c0.584,-0 0.872,0.09 0.872,0.638l-0,6.018c2.407,0.727 2.793,2.551 2.407,4.823l2.209,-0c0.198,-0 0.387,-0.27 0.485,-0.359c0.863,-1.006 1.635,-2.003 2.408,-3.009c0.287,-0.36 0.574,-0.638 0.862,-0.907c-0.773,-1.824 -0.386,-3.647 -0.386,-5.471c-0,-0.916 1.06,-1.733 2.021,-1.733c1.059,-0.09 2.021,-0.09 3.08,-0c1.159,-0 2.12,0.727 2.219,1.913c0.09,1.276 -0,2.551 -0,3.826c-0.099,0.548 -0.386,1.006 -0.584,1.554c1.258,0.728 1.446,1.824 1.347,3.099c0,0.907 0.099,5.192 0,6.099c0,0.278 -0.386,0.548 -0.574,0.736c-0.189,-0.188 -0.485,-0.458 -0.575,-0.637c-0,-1.096 0.09,-5.65 -0,-6.746c-0,-0.458 -0.198,-0.916 -0.386,-1.275c-0.288,-0.368 -0.674,-0.458 -1.159,-0.18c-1.15,0.638 -2.407,0.539 -3.557,0c-0.584,-0.368 -0.961,-0.188 -1.258,0.27c-0.961,1.095 -1.823,2.281 -2.784,3.368c-0.287,0.458 -0.584,0.548 -1.06,0.548l-3.269,-0c-0.872,-0 -1.348,0.368 -1.348,1.006c0,0.817 0.575,1.096 1.923,0.997c1.059,-0.18 2.119,-0.18 3.17,-0c0.871,0.099 1.446,-0.18 1.833,-0.728c0.673,-0.907 1.446,-1.733 2.119,-2.641c0.288,-0.368 0.575,-0.637 0.961,-0.269c0.387,0.269 0.189,0.638 0,0.907c-0.098,0.09 -0.098,0.09 -0.188,0.18c-2.219,1.823 -1.644,4.374 -1.644,6.745l6.647,0Zm-29.165,0l21.368,0l0,-3.009l-21.368,0l0,3.009Zm15.593,-7.293c-0,-0.539 -0.099,-0.907 -0,-1.365c0.189,-1.276 -0.575,-1.913 -1.734,-2.363c-0.188,-0.098 -0.574,0 -0.772,0.18c-1.536,1.186 -3.467,1.186 -4.904,0c-0.198,-0.09 -0.387,-0.278 -0.584,-0.278c-0.575,-0 -1.823,1.006 -1.823,1.554c-0.099,0.727 -0,1.455 -0,2.182c2.02,0.368 2.497,1.096 2.308,3.189l5.201,-0c-0.584,-2.003 0.673,-3 2.308,-3.099Zm-7.509,-7.832c-0,0.637 -0.099,1.185 -0,1.823c-0,1.186 0.961,2.093 2.21,2.281c1.158,0.09 2.407,-0.646 2.604,-1.733c0.189,-0.728 0.189,-1.554 0.288,-2.371l-5.102,-0Zm-10.204,-0.638c0.288,-1.276 -0.188,-1.913 -1.149,-1.913c-0.872,-0.09 -1.734,-0.09 -2.605,-0c-0.674,-0 -1.15,0.359 -1.15,0.997c0,0.826 -0.099,1.643 0,2.461c0,0.188 0.189,0.458 0.386,0.458c0.764,0.278 1.635,-0.09 1.923,-0.817c0.098,-0.369 0.188,-0.818 0.287,-1.186c0.099,-0.638 0.386,-0.817 1.06,-0.458c0.386,0.188 0.772,0.278 1.248,0.458Zm25.509,-0.09c0.288,0 0.476,-0.09 0.674,-0.09c0.476,-0.188 1.15,-0.548 1.347,-0.368c0.288,0.278 0.386,0.817 0.476,1.275c0.297,1.006 0.872,1.456 1.833,1.366c0.485,-0 0.673,-0.18 0.673,-0.638l0,-2.272c0,-0.737 -0.485,-1.096 -1.248,-1.186l-2.219,-0c-1.248,-0 -1.733,0.548 -1.536,1.913Zm-26.757,0.907c-0.485,1.734 -1.635,2.551 -3.467,2.282c0.386,1.185 1.634,1.823 2.694,1.545c1.734,-0.36 2.506,-1.824 2.021,-3.638c-0.386,-0.099 -0.772,-0.099 -1.248,-0.189Zm31.473,2.282c-1.832,0.269 -2.982,-0.548 -3.467,-2.282c-0.476,0.09 -0.862,0.189 -1.249,0.189c-0.287,2.093 0.387,3.278 1.922,3.638c1.249,0.278 2.408,-0.36 2.794,-1.545Zm-20.021,-3.647l4.913,-0l0,-1.455l-3.665,-0c-0.961,0.09 -1.347,0.548 -1.248,1.455Z"/>
  <path d="M68.12,71.539c-0,-0.279 0.099,-0.458 0.099,-0.548c-0.099,-0.817 -0,-1.275 1.06,-1.455c0.673,-0 1.06,-0.638 1.06,-1.267l-0,-5.362c-0,-0.907 -0.674,-1.545 -1.545,-1.545l-9.818,0l0,3.997c-0.09,1.725 -1.248,3 -3.072,3.27c-0.197,0.09 -0.485,0.09 -0.673,0.09c0.188,0.727 0.575,0.907 1.347,0.907c1.051,0.09 2.021,0.09 3.072,0.09c0.386,-0 0.386,1.185 -0.09,1.095c-0.674,-0.179 -1.446,-0.089 -2.12,-0.089c-1.832,0.269 -2.982,-0.369 -3.655,-2.003c-1.635,-0 -3.369,0.089 -5.003,-0.09c-2.12,-0.18 -3.854,0.359 -5.102,2.093c-0.099,0.089 -0.198,0.269 -0.386,0.269c-0.189,0.18 -0.485,0.269 -0.674,0.269c-0.189,-0.089 -0.386,-0.449 -0.386,-0.628c-0.099,-0.638 -0,-1.276 -0,-1.913c-1.536,-0.45 -2.596,-1.267 -2.883,-2.722c-0.099,-0.548 -0.099,-1.096 -0.099,-1.734l-0,-4.814c-0,-2.084 1.536,-3.449 3.754,-3.449l12.126,-0c2.407,-0 3.844,1.365 3.844,3.539l0,0.727l9.431,0c2.021,0 3.081,1.096 3.18,3l0,4.635c0,1.276 -0.575,2.183 -1.922,2.731c-0.099,0.09 -0.288,0.359 -0.288,0.628c-0.098,0.459 0,1.006 -0.098,1.456c-0,0.278 -0.198,0.547 -0.288,0.637c-0.197,0 -0.584,-0.09 -0.772,-0.179c-0.674,-0.638 -1.348,-1.366 -2.12,-2.003c-0.287,-0.18 -0.575,-0.36 -0.961,-0.36c-0.772,-0.089 -5.192,0 -5.964,-0.089c-0.288,-0 -0.386,-1.006 -0.099,-1.006c1.06,-0.09 5.677,-0.09 6.737,-0c0.287,-0 0.574,0.188 0.772,0.368c0.476,0.449 0.961,0.907 1.536,1.455Zm-24.728,-2.362c0.09,0.089 0.09,0.089 0.189,0.089c0.386,-0.278 0.674,-0.637 0.961,-0.907c0.485,-0.637 1.06,-0.817 1.931,-0.817c2.982,0.09 5.866,0.09 8.848,0.09c1.446,-0.09 2.407,-0.907 2.407,-2.273c0.099,-2.003 0.099,-3.997 -0,-6.09c-0,-1.266 -0.862,-2.182 -2.21,-2.182l-12.799,-0c-1.258,-0 -2.219,0.916 -2.219,2.093c-0.09,2.092 -0.09,4.176 0,6.269c0,1.177 0.871,2.003 2.021,2.093c0.674,0.09 0.871,0.359 0.871,0.907l0,0.728Z"/>
  <path d="M44.012,58.91l10.123,0c0.476,0 0.961,0 0.961,0.548c0,0.548 -0.485,0.548 -0.961,0.548l-7.716,-0c-0.772,-0 -1.634,0.09 -2.407,-0c-0.287,-0 -0.485,-0.368 -0.772,-0.548c0.287,-0.18 0.485,-0.548 0.772,-0.548Z"/>
  <path d="M44.201,61.928l9.934,0c0.476,0 0.961,0 0.961,0.539c0,0.539 -0.485,0.539 -0.961,0.539l-9.934,-0c-0.476,-0 -0.961,-0 -0.862,-0.539c-0,-0.539 0.386,-0.539 0.862,-0.539Z"/>
  <path d="M46.527,65.728l-2.515,-0c-0.386,-0 -0.673,-0.081 -0.772,-0.503c-0,-0.333 0.386,-0.494 0.772,-0.494c1.644,-0 3.386,-0 5.03,0.08c0.189,0 0.485,0.252 0.773,0.414c-0.288,0.17 -0.584,0.503 -0.872,0.503c-0.772,0.08 -1.643,-0 -2.416,-0Z"/>

  <text x="368" y="20" height="32" width="100" dominant-baseline="hanging" style="font-size: 12px; font-weight: 600;">
    <tspan x="368">Key Entity</tspan>
    <tspan x="368" dy="1.1em">Information</tspan>
  </text>
  <path d="M406.44,73.789l0,-7.334l-3.944,0c-1.059,0 -1.15,-0.09 -1.15,-1.089l-0,-12.236c-0,-0.999 0.091,-1.09 1.15,-1.09c1.826,0 3.662,-0.09 5.487,0c0.384,0 0.767,0.182 1.06,0.364c1.15,0.998 2.3,2.088 3.359,3.167c0.191,0.272 0.393,0.636 0.393,0.908c0.091,2.996 0,5.982 0.091,9.069c0,0.635 -0.293,0.907 -1.059,0.907l-4.136,0c-0,2.351 -0,4.711 0.101,6.971c-0,0.182 0.383,0.454 0.575,0.545c4.136,1.089 8.272,2.269 12.508,3.45c2.593,0.726 2.109,0.181 2.109,2.713c0.101,0.908 -0,1.816 0.101,2.724c-0,0.635 -0.192,0.908 -0.868,1.089c-4.903,1.352 -9.815,2.714 -14.718,3.985c-0.292,0.091 -0.575,0.091 -0.867,-0c-4.903,-1.271 -9.715,-2.633 -14.617,-3.985c-0.676,-0.181 -0.868,-0.454 -0.868,-1.089l0,-3.894c0,-0.726 0.192,-1.089 0.959,-1.271c4.428,-1.18 8.857,-2.36 13.275,-3.631c0.383,-0.091 0.676,-0.182 1.059,-0.273Zm-12.024,4.54l-0,0.181c0.101,0 0.191,0.091 0.292,0.091c3.944,1.079 7.979,2.169 11.924,3.258c0.383,0.091 0.776,0.091 1.16,0c3.268,-0.908 6.446,-1.816 9.714,-2.723c0.767,-0.172 1.533,-0.354 2.31,-0.626l0,-0.181c-4.045,-1.09 -7.989,-2.179 -12.024,-3.269l-0,2.996c-0,0 0.091,0 0.191,0.091c0.283,-0.454 0.666,-0.908 1.06,-1.362c0.474,0.363 0.665,0.636 1.059,0.908c-0.868,0.817 -1.644,1.624 -2.502,2.35c-0.192,0.091 -0.777,0.182 -0.968,0c-0.868,-0.726 -1.634,-1.533 -2.401,-2.259c0.282,-0.363 0.484,-0.636 0.958,-1.09c0.384,0.454 0.767,0.908 1.251,1.544l0,-3.178c-4.035,1.09 -8.08,2.179 -12.024,3.269Zm8.271,-25.108l0,11.963l8.857,0l0,-8.342l-2.895,0c-0.666,0 -0.958,-0.272 -0.958,-0.908c0.101,-0.908 -0,-1.715 -0,-2.713l-5.004,-0Zm-10.198,29.546c4.62,1.271 9.24,2.623 13.951,3.894l0,-3.531c-4.62,-1.271 -9.331,-2.542 -13.951,-3.904l-0,3.541Zm29.244,0.091l-0,-3.632c-4.711,1.362 -9.331,2.633 -13.941,3.904l-0,3.531c4.711,-1.271 9.23,-2.532 13.941,-3.803Zm-11.439,-27.287c-0.394,-0.454 -0.777,-0.898 -1.251,-1.261l-0,1.261l1.251,-0Z"/>
  <path d="M394.416,66.496c0.101,1.089 0.766,1.725 1.725,1.816l1.826,-0c2.007,-0 3.349,1.271 3.349,3.187l-0,0.545c0.1,0.091 0.1,0.091 0.191,0.182c0.384,-0.545 0.767,-0.999 1.15,-1.544c0.384,0.545 0.676,0.726 0.959,1.09c-0.767,0.726 -1.625,1.543 -2.492,2.36c-0.192,0.091 -0.666,0.091 -0.858,0c-0.867,-0.726 -1.724,-1.543 -2.592,-2.36c0.383,-0.273 0.676,-0.545 0.958,-0.817c0.384,0.363 0.868,0.726 1.342,1.18c0.292,-1.644 -0.474,-2.643 -2.199,-2.643l-0.958,-0c-2.3,-0 -3.36,-0.817 -3.834,-2.996l-4.025,-0c-0.676,-0 -0.958,-0.273 -0.958,-0.908l0,-12.64c0,-0.635 0.192,-0.998 0.857,-0.908c2.018,0 3.935,-0.09 5.851,0c0.283,0 0.666,0.091 0.858,0.364c1.251,0.998 2.401,2.178 3.55,3.278c0.192,0.182 0.283,0.545 0.283,0.817l-0,9.18c-0,0.544 -0.283,0.817 -0.857,0.817l-4.126,-0Zm3.641,-1.271l0,-8.363c-0.958,0 -1.916,-0.091 -2.774,0c-0.676,0 -0.958,-0.272 -0.958,-0.908l-0,-2.643l-4.983,0l-0,11.914l8.715,-0Zm-2.39,-11.006l-0,1.362l1.341,0c-0.383,-0.454 -0.867,-0.908 -1.341,-1.362Z"/>
  <path d="M419.846,66.435l-3.994,0c-0.979,0 -1.17,-0.09 -1.17,-0.998l-0,-12.398c-0,-0.908 0.191,-0.999 1.069,-0.999c1.856,0 3.803,-0.09 5.649,0c0.393,0 0.878,0.182 1.17,0.454c1.079,0.999 2.24,1.988 3.319,3.077c0.192,0.272 0.383,0.636 0.383,0.999c0.101,2.986 0.101,5.881 0.101,8.867c0,0.817 -0.192,0.998 -1.069,0.998l-4.096,0c-0.484,2.179 -1.462,2.986 -3.894,2.986l-0.685,0c-1.947,0 -2.633,0.636 -2.532,2.633c0.484,-0.454 0.978,-0.817 1.462,-1.271c0.293,0.363 0.484,0.636 0.686,0.908c-0.686,0.716 -1.563,1.624 -2.542,2.35c-0.091,0.182 -0.585,0.091 -0.777,-0.09c-0.877,-0.727 -1.654,-1.453 -2.532,-2.26c0.394,-0.272 0.686,-0.454 1.171,-0.817c0.191,0.363 0.585,0.817 0.877,1.271c0.091,-0 0.192,-0.091 0.293,-0.182l-0,-0.817c0.09,-1.634 1.462,-2.895 3.218,-2.895c0.676,-0.091 1.261,0 1.947,0c1.17,-0.091 1.846,-0.726 1.946,-1.816Zm5.165,-1.271l0,-8.322l-2.047,0c-1.756,0 -1.756,0 -1.756,-1.725l0,-1.896l-5.165,-0l0,11.943l8.968,0Zm-2.532,-10.955l0,1.362l1.463,-0c-0.494,-0.454 -0.878,-0.908 -1.463,-1.362Z"/>
  <rect x="403.979" y="58.123" width="6.174" height="1.089"/>
  <rect x="403.979" y="60.423" width="6.174" height="1.089"/>
  <rect x="403.979" y="55.702" width="2.421" height="1.089"/>
  <rect x="403.979" y="62.844" width="1.089" height="1.089"/>
  <rect x="406.521" y="62.844" width="1.211" height="1.089"/>
  <rect x="409.063" y="62.844" width="1.089" height="1.089"/>
  <rect x="390.542" y="58.002" width="6.174" height="1.211"/>
  <rect x="390.542" y="60.423" width="6.174" height="1.089"/>
  <rect x="390.542" y="62.844" width="6.174" height="1.089"/>
  <rect x="390.542" y="55.702" width="2.421" height="1.089"/>
  <rect x="417.294" y="58.002" width="6.416" height="1.211"/>
  <rect x="417.294" y="60.423" width="6.416" height="1.089"/>
  <rect x="417.294" y="62.844" width="6.416" height="1.089"/>
  <rect x="417.294" y="55.702" width="2.542" height="1.089"/>

  <text x="386" y="210" height="48" width="94" dominant-baseline="hanging" style="font-size: 12px; font-weight: 600;">
    <tspan x="386">Compliance</tspan>
    <tspan x="386" dy="1.1em">Deadline</tspan>
    <tspan x="386" dy="1.1em">Management</tspan>
  </text>
  <path d="M438.155,193.958c-0,-2.747 0.295,-1.923 -1.65,-3.847c-0.687,-0.639 -1.268,-1.192 -2.241,-1.001c-0.487,0.085 -0.677,-0.191 -0.582,-0.554c0,-0.553 -0.095,-1.192 -0.095,-1.735c-0,-3.662 0.095,-7.419 -0,-11.081c-0,-0.916 -0.105,-1.011 -0.973,-1.011c-0.391,-0 -0.782,0.095 -1.173,-0c-0.191,-0 -0.582,0.191 -0.582,-0.362c0,-0.277 -0.391,-0.554 -0.686,-0.639c-0.382,-0.182 -0.773,-0.096 -1.164,-0.277c-0.295,-0.095 -0.581,-0.277 -0.686,-0.553c-0,-0.181 0.105,-0.544 0.295,-0.82c0.296,-0.277 0.677,-0.553 0.973,-0.82c0.2,-0.191 0.296,-0.553 0.2,-0.735c-0.686,-1.831 -1.077,-2.012 -3.023,-1.468l-0.095,-0c-0.687,0.181 -1.268,-0.277 -1.068,-0.916c0.095,-0.362 0.191,-0.734 0.381,-1.001c0.201,-0.648 0.105,-1.011 -0.486,-1.287c-1.745,-0.916 -1.65,-0.916 -3.109,0.372c-0.2,0.181 -0.591,0.362 -0.782,0.267c-0.295,-0.086 -0.486,-0.363 -0.677,-0.639c-0.105,-0.363 -0.105,-0.82 -0.296,-1.192c-0.095,-0.267 -0.391,-0.544 -0.677,-0.544c-2.241,-0.277 -2.241,-0.181 -2.727,1.736c0,0.095 0,0.095 -0.095,0.181c-0.105,0.191 -0.296,0.372 -0.496,0.458c-0.773,0.371 -0.973,-0.363 -1.354,-0.725c-0.878,-0.83 -0.878,-0.83 -1.955,-0.277c-1.555,0.82 -1.555,0.544 -0.973,2.289c0.2,0.362 0.391,0.734 -0.095,1.097c-0.391,0.362 -0.782,0.181 -1.164,0.095c-1.754,-0.553 -1.363,-0.734 -2.441,0.915c-0.582,1.002 -0.582,1.002 0.296,1.736c0.2,0.181 0.486,0.362 0.686,0.553c0.487,0.458 0.286,1.097 -0.391,1.278c-0.391,0.095 -0.782,0.181 -1.173,0.277c-0.391,-0 -0.772,0.085 -0.877,0.639c-0,0.181 -0.286,0.362 -0.486,0.362c-0.287,0.095 -0.678,-0 -0.973,-0c-1.164,-0 -1.259,0.095 -1.259,1.192l0,13.189l-3.118,-0c-0.878,-0 -1.364,0.457 -1.364,1.277l-0,8.331c-0,0.824 0.486,1.282 1.364,1.282l7.4,-0c0.677,-0 1.259,-0.458 1.259,-1.19c-0,-0.549 0.105,-1.19 -0,-1.74c0.105,-1.19 -0,-4.394 -0,-4.943c-0,-0.733 -2.337,-2.932 -3.109,-3.017c-1.364,-0.096 -1.364,-0.096 -1.364,-1.374l0,-11.357c0,-0.363 0,-0.735 0.486,-0.639c0.487,-0 1.069,-0.363 1.269,0.362c0.095,0.277 0.381,0.553 0.677,0.649c0.391,0.181 0.877,0.181 1.268,0.267c0.677,0.19 0.878,0.829 0.391,1.287c-0.295,0.277 -0.591,0.544 -0.877,0.734c-0.591,0.363 -0.591,0.725 -0.2,1.374c0.972,1.554 0.972,1.554 2.822,1.001c0.296,-0 0.687,-0 0.878,0.181c0.2,0.191 0.295,0.553 0.2,0.83c-0.105,0.457 -0.296,0.82 -0.391,1.278c-0,0.181 -0,0.553 0.191,0.638c0.686,0.372 1.268,0.916 2.05,1.011c0.381,0 0.868,-0.734 1.354,-1.096c0.105,-0 0.105,-0.096 0.2,-0.182c0.391,-0.371 1.164,-0.19 1.269,0.363c0.095,0.181 0.19,0.553 0.19,0.82c0.096,0.648 0.191,1.287 1.164,1.192c-0,0.734 -0,1.469 0.105,2.107c-0,0.363 -0.201,0.554 -0.687,0.554l-2.336,-0c-1.068,-0 -1.555,0.457 -1.555,1.459l0,7.966c0,1.007 0.487,1.465 1.555,1.465l7.009,0c1.068,0 1.554,-0.458 1.554,-1.465l0,-4.577c-0.095,-2.747 0.296,-1.831 -1.745,-3.933c-0.591,-0.553 -1.268,-1.011 -2.241,-0.915c-0.095,-0 -0.486,-0.191 -0.486,-0.372c-0.096,-0.735 -0.096,-1.555 -0.096,-2.289c0.973,-0.181 0.973,-0.181 1.164,-1.001c0.095,-0.277 0.095,-0.649 0.2,-0.916c0.191,-0.648 0.868,-0.915 1.459,-0.372c0.191,0.181 0.487,0.458 0.677,0.735c0.391,0.553 0.878,0.638 1.459,0.276c1.946,-1.192 1.85,-0.734 1.173,-2.746c-0.095,-0.182 0,-0.639 0.096,-0.735c0.19,-0.181 0.677,-0.276 0.877,-0.276c1.945,0.553 1.945,0.553 3.013,-1.097c0.296,-0.553 0.201,-0.915 -0.286,-1.278c-0.295,-0.19 -0.591,-0.457 -0.877,-0.734c-0.486,-0.458 -0.296,-1.097 0.286,-1.287c0.391,-0.086 0.687,-0.182 1.078,-0.182c0.486,-0.085 0.972,-0.181 1.068,-0.82c-0,-0.095 -0,-0.181 0.095,-0.181c0.296,-0.095 0.973,-0.095 1.268,-0.095c0.191,-0 0.296,0.276 0.296,0.457l0,12.359c0,0.458 -0.2,0.554 -0.591,0.554l-2.527,-0c-0.878,-0 -1.364,0.457 -1.364,1.277c-0.095,0.55 -0.095,3.845 -0,5.036l-0,3.112c-0,1.099 0.391,1.465 1.554,1.465l6.819,0c1.163,0 1.65,-0.458 1.65,-1.465l-0,-4.577Zm-32.605,-4.028c1.068,-0 1.068,0.095 1.068,1.098c0.096,0.641 0.296,1.099 0.973,1.282c0.486,0.092 1.268,-0 1.459,0.183c0.296,0.275 0.2,3.479 0.2,4.577c-0.095,0.367 0,0.733 0,1.191c0,0.549 -0.391,1.007 -0.973,1.007c-2.241,-0.092 -4.386,-0.092 -6.522,-0c-0.592,-0 -0.973,-0.367 -0.973,-0.916l-0,-7.598c-0,-0.462 0.381,-0.824 0.973,-0.824l3.795,-0Zm14.409,-0c0.487,-0 0.773,0.095 0.773,0.639c-0,1.375 0.391,1.649 1.85,1.741c0.486,-0 0.686,0.183 0.686,0.641l0,5.584c0,0.55 -0.2,0.733 -0.781,0.733c-2.146,-0.092 -4.673,-0.092 -6.819,-0c-0.582,-0 -0.772,-0.275 -0.772,-0.824l-0,-7.782c-0,-0.551 0.19,-0.828 0.772,-0.732l4.291,-0Zm9.146,-13.914l-0.096,0c-1.363,0.277 -1.85,0.735 -1.85,2.012c0,0.182 0.096,0.458 0.191,0.554c0.296,0.267 0.591,0.543 0.973,0.82c0.295,0.276 0.391,0.457 0.2,0.915c-0.296,0.363 -0.582,0.553 -0.973,0.363c-0.095,-0.086 -0.295,-0.086 -0.391,-0.086c-1.268,-0.458 -1.945,-0.181 -2.632,0.915c-0.095,0.086 -0.095,0.363 0,0.544c0,0.372 0.105,0.734 0.296,1.011c0.191,0.457 0.095,0.734 -0.391,1.01c-0.486,0.363 -0.782,0.086 -1.068,-0.276c-0,-0.095 -0.096,-0.095 -0.2,-0.181c-0.677,-0.83 -1.746,-1.011 -2.718,-0.372c-0.201,0.095 -0.296,0.276 -0.296,0.458c-0.095,0.371 -0.191,0.734 -0.295,1.192c-0.096,0.362 -0.287,0.553 -0.773,0.553c-0.486,-0 -0.782,-0.191 -0.782,-0.649l0,-0.181c-0.391,-1.373 -0.677,-1.65 -2.146,-1.831c-0.286,0 -0.486,0.181 -0.677,0.277c-0.295,0.181 -0.486,0.457 -0.782,0.82c-0.286,0.276 -0.581,0.457 -1.068,0.19c-0.391,-0.276 -0.581,-0.553 -0.295,-0.915l-0,-0.191c0.486,-1.373 0.391,-1.735 -0.868,-2.555c-0.2,-0.096 -0.486,-0.096 -0.687,-0.096c-0.391,0.096 -0.677,0.181 -1.068,0.363c-0.486,0.19 -0.782,0.095 -1.068,-0.363c-0.295,-0.553 0,-0.734 0.286,-1.011c0.096,0 0.096,-0.086 0.096,-0.086c1.077,-0.829 1.173,-1.554 0.591,-2.66c-0.105,-0.181 -0.391,-0.267 -0.591,-0.363c-0.286,-0.095 -0.677,-0.181 -1.068,-0.181c-0.487,-0.095 -0.678,-0.276 -0.678,-0.829c0,-0.458 0.191,-0.639 0.678,-0.725l0.2,-0c1.259,-0.277 1.84,-0.916 1.84,-2.108c0,-0.181 -0.095,-0.372 -0.286,-0.553c-0.2,-0.276 -0.486,-0.457 -0.782,-0.639c-0.486,-0.362 -0.486,-0.639 -0.286,-1.011c0.286,-0.457 0.582,-0.543 0.973,-0.362c0.095,0 0.191,0.095 0.286,0.095c1.364,0.458 1.85,0.267 2.727,-0.829c0.096,-0.181 0.096,-0.458 0,-0.639c0,-0.362 -0.19,-0.639 -0.295,-1.011c-0.191,-0.458 -0.191,-0.725 0.295,-1.001c0.582,-0.372 0.878,-0.096 1.173,0.276c0,0.086 0.096,0.086 0.096,0.181c0.877,0.821 1.649,1.002 2.822,0.363c0.096,-0.086 0.286,-0.277 0.286,-0.458c0.105,-0.458 0.201,-0.82 0.296,-1.192c0.095,-0.458 0.391,-0.543 0.782,-0.543c0.391,-0 0.677,0.085 0.773,0.457l-0,0.363c0.39,1.373 0.591,1.649 2.145,1.745c0.191,0.086 0.487,-0 0.677,-0.191c0.296,-0.181 0.487,-0.458 0.782,-0.725c0.191,-0.372 0.487,-0.648 0.973,-0.276c0.582,0.276 0.582,0.543 0.391,1.001c-0.095,0.095 -0.095,0.277 -0.191,0.458c-0.295,0.829 0.286,2.021 1.164,2.288c0.095,0 0.19,0 0.391,0.096c0.486,-0.181 0.972,-0.277 1.459,-0.458c0.486,-0.181 0.581,0 0.782,0.277c0.19,0.276 0.381,0.543 -0,0.915c-0.105,0 -0.105,0.086 -0.201,0.181c-1.258,0.639 -1.163,1.555 -0.677,2.566c0.096,0.276 0.391,0.457 0.582,0.543c0.296,0.096 0.677,0.096 0.973,0.191c0.486,0.086 0.782,0.181 0.782,0.725c-0,0.553 -0.296,0.734 -0.782,0.829Zm8.277,22.336c0,0.458 -0.391,0.916 -0.973,0.916c-2.145,-0.092 -4.386,-0.092 -6.618,-0c-0.496,-0 -0.877,-0.367 -0.877,-0.916l-0,-2.838c0.095,-1.007 -0,-4.303 -0,-4.76c-0,-0.548 0.381,-0.824 0.973,-0.824l4.081,-0c0.591,-0.096 0.782,0.276 0.782,0.824c0.096,1.281 0.296,1.556 1.659,1.556c0.582,-0 0.973,0.183 0.973,0.732c-0.095,1.74 -0.095,3.571 0,5.31Z"/>
  <rect x="416.479" y="196.681" width="5.264" height="0.687"/>
  <rect x="416.479" y="194.393" width="5.264" height="0.801"/>
  <rect x="416.479" y="192.218" width="3.547" height="0.687"/>
  <rect x="430.44" y="196.681" width="5.15" height="0.687"/>
  <rect x="430.44" y="194.393" width="5.15" height="0.801"/>
  <rect x="430.44" y="192.218" width="3.547" height="0.687"/>
  <rect x="402.174" y="196.681" width="5.15" height="0.687"/>
  <rect x="402.174" y="194.393" width="5.15" height="0.801"/>
  <rect x="402.174" y="192.218" width="3.319" height="0.687"/>
  <path d="M425.681,172.764c0,-0.095 0,-0.181 -0.095,-0.181l-0,-0.181c-0.096,-0.191 -0.296,-0.372 -0.391,-0.648l-0.096,-0.086c-0.677,-1.097 -1.64,-1.831 -2.317,-2.203l-0.095,-0.086c-0.191,-0.095 -0.296,-0.095 -0.391,-0.181c-0.286,-0.191 -0.477,-0.277 -0.477,-0.277c-1.354,-0.457 -2.708,-0.553 -4.158,-0.276c-3.576,0.639 -5.989,3.757 -5.598,7.228c0.286,3.3 3.281,5.951 6.857,6.046c2.804,0 4.921,-1.096 6.275,-3.385c1.163,-1.831 1.354,-3.757 0.582,-5.674c-0.096,-0 -0.096,-0.096 -0.096,-0.096Zm-3.385,7.324c-2.127,1.192 -4.826,1.097 -6.761,-0.181c-0.582,-0.458 -0.677,-0.83 -0.287,-1.373c0.382,-0.83 1.059,-1.192 2.032,-1.192l1.831,-0c0.581,-0 1.163,-0.096 1.735,-0c0.582,0.095 1.164,0.276 1.545,0.553c1.068,0.725 1.068,1.554 -0.095,2.193Zm-5.693,-6.046c-0,-1.278 1.154,-2.374 2.508,-2.374c1.354,-0 2.508,1.096 2.508,2.374c-0,1.288 -1.154,2.384 -2.508,2.384c-1.354,0 -2.508,-1.096 -2.508,-2.384Zm7.533,4.397c-0.581,-1.097 -1.354,-1.736 -2.412,-2.013c1.154,-2.47 1.058,-3.843 -0.391,-4.939c-1.355,-1.011 -3.09,-1.011 -4.349,-0.096c-1.545,1.097 -1.64,2.47 -0.486,5.035c-1.059,0.277 -1.831,0.916 -2.413,2.013c-0.868,-1.278 -1.249,-2.47 -1.058,-3.844c0.677,-4.215 5.025,-6.408 9.078,-4.482c0.677,0.458 1.64,1.183 2.317,2.289c0.296,0.725 0.582,1.373 0.677,2.098c0.287,1.373 -0.095,2.661 -0.963,3.939Z"/>
</svg>
